<svg width="36" height="15" viewBox="0 0 36 15" fill="none" xmlns="http://www.w3.org/2000/svg">
<path d="M4.77332 5.73395C4.89245 5.67716 5.01158 5.62037 5.13071 5.56358L5.12335 5.56482C5.23981 5.59136 5.35626 5.6179 5.48878 5.64815C5.44862 5.68642 5.41315 5.71914 5.39508 5.73642C5.57043 5.7216 5.75917 5.70556 5.93854 5.69012C5.95995 5.63642 6.01082 5.57037 6.00747 5.50679C5.99944 5.35617 6.1159 5.39568 6.2009 5.37161C6.25243 5.35679 6.29326 5.31111 6.3555 5.2679C6.46593 5.44691 6.65132 5.33951 6.81329 5.32469C6.89963 5.31667 6.99132 5.25679 7.05958 5.19877C7.12584 5.14198 7.16801 5.05802 7.08836 4.97407C7.15395 4.94321 7.21954 4.88827 7.28513 4.88765C7.39356 4.88765 7.42568 4.84568 7.42903 4.76049C7.57761 4.85062 7.59166 4.8463 7.63717 4.7C7.5321 4.68086 7.42635 4.66111 7.3206 4.64198C7.32127 4.62593 7.32194 4.61049 7.32328 4.59444C7.58029 4.55309 7.83729 4.51173 8.10166 4.46914C8.12843 4.65679 7.93501 4.63457 7.85068 4.71235C7.88949 4.73519 7.92363 4.75556 7.99859 4.8C7.89418 4.82099 7.82993 4.83395 7.79579 4.84074C7.75764 4.91173 7.72753 4.96667 7.69139 5.03457C7.81186 5.03086 7.94705 5.02654 8.0876 5.02222C7.99055 4.85062 8.00863 4.81296 8.21276 4.80432C8.33256 4.79938 8.46708 4.78704 8.57952 4.89691C8.49252 4.91605 8.43161 4.92901 8.34059 4.94877C8.53602 5.00556 8.70133 5.0537 8.87802 5.10556C8.66385 5.12716 8.46441 5.14753 8.26295 5.16728C8.3011 5.21543 8.32988 5.25247 8.35933 5.28889C8.34862 5.29568 8.33791 5.30309 8.3272 5.30988C8.2402 5.26358 8.15854 5.19506 8.06485 5.17654C7.95977 5.15556 7.84398 5.17963 7.74426 5.18395C7.88882 5.31049 8.02469 5.43025 8.16725 5.55494C8.07689 5.57716 7.99457 5.59691 7.91158 5.61667C7.9156 5.62654 7.91961 5.63642 7.92296 5.64568C7.83327 5.61914 7.74359 5.59259 7.65391 5.56605C7.71749 5.51852 7.7804 5.47099 7.84264 5.42407C7.71481 5.39259 7.59568 5.22099 7.41564 5.36605C7.22088 5.39198 7.02612 5.41728 6.79388 5.44815C6.89427 5.6321 7.09104 5.52531 7.20348 5.59877C7.09171 5.73951 7.24899 5.69198 7.28781 5.70679C7.27242 5.76173 7.23694 5.81667 7.25167 5.85494C7.26305 5.88457 7.33801 5.90864 7.38419 5.90864C7.6693 5.90679 7.95441 5.89877 8.23953 5.89074C8.50724 5.88333 8.77562 5.87346 9.04534 5.88889C8.80909 5.95802 8.57216 6.02778 8.33591 6.09691C8.34059 6.11543 8.34527 6.13333 8.34996 6.15185C8.41421 6.14815 8.47913 6.14383 8.54338 6.14198C8.6324 6.13889 8.7281 6.08272 8.7957 6.20309C8.81712 6.24136 8.9329 6.26543 8.99113 6.24938C9.12231 6.21358 9.28963 6.36481 9.39136 6.18333C9.4014 6.16481 9.46498 6.14938 9.48238 6.16049C9.63498 6.25802 9.74809 6.19198 9.85986 6.0963C9.87325 6.08519 9.90336 6.09074 9.92679 6.08827C9.92679 6.21543 10.0118 6.23519 10.1932 6.14198C10.1155 6.12407 10.0519 6.10926 9.97029 6.09074C10.056 5.8784 9.80699 5.93333 9.71061 5.79074C9.89065 5.82469 10.0325 5.85123 10.1818 5.87901C10.2079 5.85123 10.2387 5.81914 10.2581 5.79815C10.311 5.80802 10.3658 5.83519 10.3966 5.82037C10.5445 5.74877 10.6904 5.79568 10.8404 5.80062C10.9809 5.80494 11.1248 5.77284 11.264 5.74506C11.4026 5.7179 11.5384 5.67654 11.689 5.63704C11.691 5.70802 11.6917 5.74074 11.693 5.77346C11.7044 5.77654 11.7158 5.77963 11.7272 5.78272C11.7546 5.71914 11.7901 5.65679 11.8035 5.59074C11.8075 5.57284 11.7452 5.52222 11.7138 5.52222C11.4173 5.52099 11.1208 5.53519 10.8243 5.5284C10.6864 5.52531 10.5492 5.48457 10.412 5.46111C10.414 5.44506 10.4167 5.4284 10.4187 5.41235C10.6028 5.39815 10.7861 5.37654 10.9702 5.37037C11.4266 5.35494 11.8838 5.33827 12.3402 5.33642C12.9305 5.33395 13.5215 5.34691 14.1118 5.34938C14.3568 5.35062 14.6011 5.33765 14.846 5.34074C15.1238 5.34383 15.4022 5.36481 15.6799 5.36358C15.8519 5.36358 16.0239 5.32654 16.1959 5.32407C16.2997 5.32284 16.4034 5.37222 16.5072 5.37161C16.8505 5.3679 17.1945 5.35062 17.5379 5.34136C17.5994 5.33951 17.661 5.35309 17.7226 5.35988C17.7226 5.38457 17.7239 5.40864 17.7239 5.43333C17.5586 5.46482 17.394 5.49568 17.1771 5.53704C17.3036 5.61173 17.404 5.71728 17.5118 5.72469C17.7239 5.73889 17.9401 5.69815 18.1663 5.67901C18.0927 5.58704 18.0204 5.4963 17.9374 5.39259C18.1523 5.35432 18.3169 5.32161 18.4829 5.29691C18.5679 5.28395 18.6562 5.28889 18.7419 5.27901C18.762 5.27654 18.7787 5.24877 18.7693 5.25741C18.8791 5.25741 18.9668 5.25864 19.0545 5.25864C19.108 5.25864 19.1615 5.25556 19.2144 5.25988C19.3028 5.2679 19.3797 5.34506 19.4841 5.27654C19.5109 5.25926 19.5999 5.31235 19.6535 5.34321C19.7298 5.38642 19.7994 5.43889 19.8837 5.49568C19.8034 5.64444 19.6294 5.49136 19.462 5.56852C19.537 5.61235 19.5952 5.67593 19.6474 5.67222C20.1594 5.63827 20.6701 5.58704 21.1821 5.55247C21.6486 5.52099 22.1157 5.50617 22.5829 5.48148C22.868 5.46667 23.1525 5.44383 23.4376 5.43086C23.5949 5.42346 23.7535 5.43827 23.9101 5.42654C24.0399 5.41728 24.1684 5.38457 24.3271 5.35679C24.2534 5.18889 24.1845 5.02407 24.1089 4.86173C23.6277 3.82407 23.1431 2.78765 22.6632 1.74938C22.5689 1.54506 22.4939 1.33333 22.4029 1.12716C22.36 1.02963 22.34 0.957407 22.4658 0.890123C22.6016 0.818519 22.7141 0.690741 22.8834 0.829012C22.8988 0.841358 22.9343 0.832099 22.9945 0.833333L22.7221 0.650617C22.7221 0.582099 22.7388 0.501235 22.7201 0.493827C22.5488 0.424691 22.6043 0.619136 22.5059 0.654938C22.3861 0.629012 22.6003 0.401852 22.3159 0.472222L22.5809 0.135185C22.7074 0.159877 22.7877 0.175926 22.8674 0.191358L22.8774 0.15C22.8479 0.112346 22.8185 0.0753086 22.789 0.0376543C22.8038 0.0253086 22.8192 0.0123457 22.8339 0C23.0193 0.164815 23.2047 0.32963 23.4095 0.511728C23.4081 0.514198 23.3921 0.551852 23.376 0.590123C23.5835 0.614197 23.7301 0.912346 24.0038 0.694444C24.0386 0.756173 24.0694 0.819136 24.1102 0.876543C24.1256 0.898765 24.1631 0.909259 24.1912 0.922222C24.2769 0.962346 24.3645 0.999383 24.4502 1.04012C24.5359 1.08086 24.6162 1.13395 24.7052 1.16605C24.9475 1.25185 24.995 1.45679 25.0619 1.64877C25.074 1.68395 25.0472 1.73086 25.0365 1.78457C25.0833 1.79259 25.1295 1.80062 25.1898 1.81111C25.1831 1.75 25.1784 1.7037 25.1717 1.64259C25.2165 1.64877 25.252 1.6537 25.3169 1.66235C25.2527 1.59012 25.2025 1.53272 25.1516 1.47593C25.1663 1.46049 25.1811 1.44568 25.1958 1.43025C25.2687 1.49753 25.3403 1.56543 25.4153 1.63086C25.517 1.71975 25.6168 1.80988 25.7245 1.89136C25.7781 1.9321 25.847 1.95494 25.9179 1.97407C26.0183 2.05123 26.0926 2.14012 26.2686 2.0642C26.3182 2.04259 26.4487 2.1784 26.539 2.24568C26.5511 2.25432 26.533 2.29259 26.5444 2.30679C26.6709 2.46605 26.537 2.44383 26.4032 2.47407C26.6127 2.62346 26.8228 2.77222 27.0323 2.92161C27.0196 2.93704 27.0075 2.95247 26.9948 2.9679C26.8489 2.90432 26.703 2.84074 26.5564 2.77716C26.5464 2.79568 26.5357 2.81358 26.5256 2.8321L26.8603 3.02284C26.8683 3.01111 26.8763 2.99877 26.8844 2.98704C26.9239 3.09198 26.9634 3.1963 27.0189 3.34198L27.2913 2.99568C27.3482 3.02531 27.3924 3.04815 27.4024 3.0537C27.4787 3.03519 27.5409 3.00062 27.5711 3.01667C27.6781 3.07284 27.7792 3.14136 27.8716 3.21667C27.907 3.24568 27.9131 3.30556 27.9398 3.36728C27.9586 3.36173 27.992 3.3463 28.0275 3.34198C28.061 3.33765 28.0958 3.34383 28.1299 3.34568C28.1098 3.43827 28.227 3.44383 28.2363 3.45988C28.334 3.63827 28.3755 3.46173 28.4251 3.43642C28.4619 3.41728 28.4779 3.36296 28.488 3.34691C28.4485 3.27099 28.415 3.20679 28.3816 3.14321C28.3963 3.13642 28.411 3.12963 28.4264 3.12284C28.5415 3.18025 28.662 3.23148 28.7704 3.29815C28.8206 3.32901 28.8273 3.4 28.8648 3.45123C29.0254 3.67037 29.2991 3.71852 29.51 3.85802C29.613 3.92593 29.7302 3.97531 29.852 3.99691C29.9236 4.01111 30.0046 4.01049 30.0655 4.04321C30.2489 4.14074 30.4235 4.25123 30.6022 4.35617C30.6116 4.3463 30.6217 4.3358 30.631 4.32593C30.4523 4.17531 30.273 4.02469 30.0943 3.87407C30.1043 3.86173 30.1143 3.85 30.1244 3.83765C30.5534 4.07222 30.9817 4.30617 31.4154 4.54321C31.3425 4.67593 31.2909 4.75741 31.145 4.69383C31.4181 4.84012 31.6912 4.9858 31.9642 5.1321C31.9703 5.12346 31.9769 5.11481 31.983 5.10556L31.5325 4.8037C31.6483 4.66481 31.7494 4.81111 31.8364 4.83272C31.9495 4.86111 32.0546 4.93272 32.1496 5.00124C32.2186 5.05123 32.2661 5.12716 32.323 5.19136C32.3102 5.2037 32.2982 5.21605 32.2855 5.22778C32.1985 5.19568 32.1115 5.16296 32.0245 5.13086C32.0158 5.14074 32.0077 5.15062 31.999 5.16111L32.2955 5.35988C32.2942 5.34444 32.2928 5.32901 32.2915 5.31296C32.3457 5.30247 32.4133 5.2679 32.4528 5.28519C32.6355 5.36728 32.8082 5.46914 32.9902 5.5537C33.1984 5.65062 33.4126 5.73457 33.6227 5.82839C33.6649 5.84691 33.697 5.88457 33.7338 5.91296C33.7311 5.93086 33.7285 5.94877 33.7264 5.96667C33.6575 5.97469 33.5832 6.00124 33.5216 5.98457C33.4547 5.96667 33.3998 5.90926 33.3396 5.86914C33.3269 5.88148 33.3142 5.89383 33.3015 5.90617C33.3517 5.95864 33.3925 6.02469 33.4534 6.06049C33.6675 6.18704 33.8964 6.29321 34.1053 6.42593C34.4894 6.67099 34.8615 6.93272 35.243 7.18148C35.3461 7.24877 35.4706 7.28765 35.577 7.35185C35.6426 7.39136 35.6915 7.4537 35.7711 7.52716C35.8313 7.55062 35.9337 7.59074 36 7.61667C35.9592 7.6963 35.8989 7.75926 35.9023 7.81914C35.9096 7.94691 35.8441 8.03333 35.7343 8.05803C35.6058 8.08704 35.5824 8.14877 35.5984 8.25679C35.5482 8.22839 35.5087 8.20556 35.4606 8.1784C35.4472 8.2284 35.4358 8.27222 35.4278 8.30309C34.9211 8.44444 34.5129 8.71111 34.124 9.03518C34.1039 9.01667 34.0691 8.98457 34.0343 8.95309C33.9948 9.0037 33.9553 9.05432 33.9145 9.10432C33.8991 9.12346 33.8837 9.15 33.8623 9.15741C33.7633 9.19321 33.6214 9.19691 33.5712 9.26173C33.5016 9.35124 33.45 9.39321 33.3262 9.41358C33.2071 9.43333 33.0953 9.52099 32.9969 9.59691C32.9541 9.63025 32.9521 9.70802 32.9387 9.74568C32.8423 9.8463 32.7587 9.94568 32.6603 10.0321C32.6014 10.084 32.5224 10.116 32.4508 10.1543C32.3042 10.2333 32.1583 10.3136 32.0084 10.3883C31.9562 10.4142 31.8732 10.4086 31.8431 10.4444C31.7782 10.5228 31.6269 10.458 31.5901 10.6216C31.5714 10.7037 31.3398 10.7636 31.1946 10.7975C31.06 10.8284 30.9409 10.8772 30.8392 10.9549C30.4543 11.2481 30.0206 11.471 29.599 11.7136C29.1472 11.9735 28.7021 12.2432 28.2537 12.5086C27.9833 12.6685 27.7123 12.8265 27.4432 12.9883C27.3589 13.0389 27.2806 13.0988 27.1943 13.158C27.201 13.1907 27.211 13.237 27.2204 13.2827C27.207 13.2877 27.1929 13.2926 27.1795 13.2975C27.1561 13.2728 27.132 13.2475 27.1173 13.2321C26.9292 13.3401 26.7432 13.4475 26.5571 13.5549C26.5471 13.5605 26.539 13.5741 26.5303 13.5741C26.2265 13.5778 26.0545 13.8148 25.8088 13.9216C25.6924 13.9722 25.5933 14.0574 25.4869 14.1272C25.4762 14.116 25.4648 14.1049 25.4541 14.0938C25.4628 14.0444 25.4715 13.9951 25.4809 13.9463C25.3022 14.1327 25.0987 14.2821 24.8658 14.4111C24.6543 14.5284 24.5098 14.7562 24.2213 14.7426C24.22 14.7679 24.236 14.8481 24.2133 14.8593C24.0955 14.916 23.9676 14.9549 23.8432 15C23.8271 14.9519 23.7816 14.8883 23.8003 14.8586C23.8345 14.8031 23.9041 14.7636 23.963 14.7222C24.1356 14.6019 24.3097 14.484 24.485 14.3667C24.5118 14.3488 24.5466 14.342 24.578 14.3296C24.7976 14.2432 24.9394 14.079 25.0666 13.8957C24.9843 13.9364 24.902 13.9778 24.8196 14.0185C24.9274 13.792 25.0345 13.5889 25.2935 13.4914C25.432 13.4389 25.5472 13.3309 25.6683 13.2432C25.6951 13.2235 25.7031 13.1815 25.691 13.1222C25.517 13.2352 25.3477 13.3543 25.1677 13.458C25.0378 13.5333 24.8946 13.5901 24.7547 13.65C24.7393 13.6568 24.7092 13.6284 24.6845 13.6235C24.6376 13.6142 24.5887 13.6099 24.5412 13.6037C24.5412 13.6228 24.5399 13.642 24.5399 13.6611C24.5814 13.6673 24.6229 13.6735 24.6958 13.6846C24.6577 13.7278 24.6363 13.7691 24.6001 13.7889C24.3645 13.9222 24.1156 14.037 23.8927 14.1852C23.7521 14.2784 23.5514 14.3451 23.5674 14.571C23.5701 14.6043 23.4255 14.6463 23.3486 14.6846C23.3379 14.6648 23.3271 14.6457 23.3171 14.6259C23.3867 14.5938 23.457 14.5617 23.5266 14.529C23.5199 14.516 23.5132 14.5025 23.5065 14.4895C23.4476 14.5142 23.3847 14.5327 23.3318 14.5648C23.131 14.687 23.0855 14.6698 23.0514 14.4389C22.9744 14.4728 22.8988 14.5321 22.8272 14.529C22.7696 14.5265 22.7161 14.4481 22.6311 14.3796C22.5615 14.3716 22.3948 14.4241 22.433 14.2216C22.3754 14.2031 22.3226 14.1864 22.271 14.1698C22.2991 14.1099 22.3259 14.0519 22.3587 13.9821C22.3935 13.9963 22.4323 14.0123 22.4691 14.0278C22.5956 13.9179 22.7181 13.8105 22.8707 13.6778C22.7743 13.6698 22.7261 13.6654 22.6994 13.663C22.597 13.3333 22.8493 13.1506 23.0186 12.9309C23.1746 12.7284 23.3091 12.5123 23.4583 12.3049C23.5447 12.1852 23.6404 12.071 23.7301 11.9531C23.7823 11.8846 23.8298 11.813 23.892 11.7253C23.892 11.7173 23.8746 11.6648 23.896 11.6358C24.0861 11.3673 24.2789 11.1006 24.481 10.8401C24.5131 10.7988 24.5961 10.7784 24.6577 10.7735C24.7567 10.766 24.8591 10.7827 24.918 10.6309C24.8217 10.6679 24.7527 10.6944 24.6838 10.721C24.6711 10.7062 24.6577 10.692 24.645 10.6772C24.7012 10.5877 24.7507 10.4938 24.8163 10.4099C24.8913 10.3142 24.9481 10.2358 24.7654 10.1963C24.7474 10.1926 24.734 10.1685 24.6972 10.134C24.8337 10.0963 24.9508 10.0642 25.0686 10.0321C25.0666 10.0235 25.0646 10.0154 25.0633 10.0068C24.6563 10.0568 24.2487 10.1062 23.8418 10.1562C23.8378 10.1395 23.8338 10.1222 23.8298 10.1056C23.9241 10.079 24.0212 10.0586 24.1122 10.0247C24.3411 9.94012 24.5894 9.96296 24.827 9.90679C25.076 9.84815 25.345 9.86296 25.604 9.8358C25.6844 9.82716 25.7607 9.78765 25.8517 9.75803C25.849 9.72284 25.8457 9.68148 25.843 9.64815C25.685 9.66235 25.5324 9.67531 25.3685 9.69012C25.3812 9.64383 25.3892 9.61605 25.3972 9.58642C24.898 9.68765 24.39 9.65123 23.8887 9.70185C23.3706 9.75432 22.8459 9.74877 22.3065 9.76975C22.3333 9.80864 22.35 9.8321 22.3741 9.86667C22.2623 9.8716 22.1593 9.87593 22.0274 9.88148C22.0702 9.84136 22.087 9.82469 22.1291 9.78519C21.8601 9.79012 21.6158 9.78395 21.3742 9.80432C21.2638 9.81358 21.1486 9.92284 21.0536 9.90432C20.8796 9.87099 20.7678 9.97901 20.6239 10.0037C20.484 10.0278 20.3482 10.0944 20.2096 10.0981C20.0945 10.1006 19.9259 10.1543 19.8743 9.93395C19.7485 10.0383 19.6468 10.1228 19.4955 10.2481C19.63 10.258 19.7237 10.2648 19.8522 10.2741C19.7431 10.3154 19.6635 10.3457 19.5839 10.3759L19.5919 10.3747C19.5076 10.3432 19.4232 10.3117 19.3235 10.2747C19.3222 10.2389 19.3195 10.1877 19.3161 10.1086C19.2004 10.129 19.0899 10.1475 18.9367 10.1741C19.0103 10.2136 19.035 10.2272 19.0585 10.2401C19.019 10.3327 18.43 10.3216 18.244 10.2185C18.2353 10.2895 18.2279 10.3481 18.2205 10.4074C18.0465 10.3185 17.8832 10.413 17.7139 10.4716C17.6844 10.4815 17.6516 10.4889 17.6209 10.487C17.4602 10.4759 17.2922 10.429 17.141 10.458C16.9991 10.4852 16.9529 10.4253 16.9047 10.3654C16.7802 10.4025 16.6638 10.437 16.55 10.471C16.475 10.363 16.4295 10.2512 16.2937 10.4136C16.2555 10.4593 16.0976 10.416 15.9945 10.4185C15.9128 10.421 15.8319 10.4346 15.7495 10.4377C15.6331 10.442 15.5166 10.4414 15.3721 10.4426C15.4263 10.4747 15.4597 10.4944 15.5327 10.5377C15.2777 10.5346 15.0608 10.5309 14.844 10.5309C14.6198 10.5309 14.3963 10.5346 14.172 10.5364C14.1667 10.5142 14.1613 10.492 14.1566 10.4698C14.2684 10.4414 14.3802 10.4123 14.492 10.384C14.4893 10.3728 14.4873 10.3623 14.4846 10.3512C14.3635 10.3358 14.1915 10.2654 14.1305 10.3142C13.9291 10.4747 13.7343 10.442 13.5101 10.3981C13.3689 10.371 13.3635 10.3963 13.298 10.2784C13.3381 10.2463 13.3796 10.2123 13.4385 10.1654C13.3361 10.1463 13.2531 10.1309 13.1708 10.1154C13.1695 10.0988 13.1681 10.0821 13.1668 10.0654C13.3167 10.0432 13.4673 10.0216 13.6172 9.99938C13.1534 9.95309 12.6842 10.0741 12.2231 9.89074C12.2177 9.90062 12.2077 9.92284 12.1943 9.94321C12.1803 9.96482 12.1629 9.98395 12.1528 9.9963C11.9835 10.0012 11.8202 10.008 11.6569 10.0105C11.6074 10.0105 11.5565 9.98827 11.509 9.99383C11.4287 10.0025 11.351 10.0253 11.272 10.042C11.3089 10.0901 11.343 10.1407 11.3825 10.1864C11.4086 10.2167 11.4434 10.2401 11.511 10.2981C11.3845 10.263 11.3075 10.2414 11.2305 10.2198C11.2198 10.2407 11.2098 10.2617 11.1991 10.2827C11.3811 10.3599 11.5632 10.4377 11.7452 10.5148C11.7573 10.4988 11.7693 10.4833 11.7814 10.4673C11.7439 10.4247 11.7064 10.3821 11.6703 10.3407C11.8583 10.3667 11.8751 10.3907 11.8055 10.5426L12.0712 10.7204C11.9239 10.7574 11.8162 10.7846 11.7251 10.8074C11.6368 10.7901 11.5578 10.7685 11.4768 10.7605C11.2968 10.7432 11.1161 10.7352 10.9361 10.7167C10.8993 10.713 10.8504 10.6883 10.8343 10.6599C10.7721 10.5506 10.6958 10.4759 10.5472 10.5056C10.5432 10.5062 10.5305 10.4698 10.5158 10.4364C10.6335 10.4309 10.7426 10.4259 10.8209 10.4222C10.8531 10.3321 10.8718 10.2852 10.8852 10.2364C10.8912 10.2154 10.8946 10.184 10.8819 10.171C10.8645 10.1531 10.829 10.1352 10.8049 10.1389C10.6054 10.1667 10.4073 10.2006 10.2079 10.2284C10.161 10.2352 10.1122 10.2247 10.064 10.2222C9.9482 10.2161 9.9549 10.2167 9.93683 10.3284C9.93281 10.3519 9.85651 10.3846 9.81836 10.3802C9.69254 10.366 9.59282 10.3772 9.50849 10.4833C9.48105 10.5179 9.35187 10.5333 9.31841 10.5056C9.16581 10.3821 8.94094 10.4833 8.81578 10.3562C8.76023 10.379 8.70602 10.421 8.6759 10.4099C8.58822 10.3765 8.51059 10.3222 8.42894 10.2753C8.43496 10.2574 8.44098 10.2389 8.447 10.221C8.38543 10.2438 8.32319 10.2673 8.23886 10.2988C8.22146 10.237 8.20339 10.1753 8.18398 10.108C8.02737 10.1062 7.85938 10.1043 7.69206 10.1019C7.68603 10.0827 7.68001 10.0636 7.67332 10.0451C7.78375 9.98951 7.89351 9.93333 8.00394 9.8784C8.07087 9.84568 8.14248 9.82037 8.20606 9.78272C8.37941 9.68025 8.56346 9.70494 8.74684 9.74012C8.7609 9.74259 8.76291 9.79938 8.77696 9.85556C8.81645 9.82469 8.86598 9.80185 8.88538 9.76543C8.90078 9.7358 8.87936 9.68951 8.87267 9.63827C8.83854 9.63827 8.78365 9.63827 8.72877 9.63827C8.7261 9.62963 8.72342 9.62099 8.72141 9.61235C8.82381 9.59198 8.92621 9.57099 9.02861 9.55062C9.03062 9.53951 9.03263 9.52778 9.03464 9.51667C8.82983 9.48395 8.62503 9.45185 8.42023 9.41914C8.41756 9.41296 8.41488 9.40617 8.4122 9.4C8.52665 9.38333 8.65582 9.32716 8.75153 9.35926C8.94428 9.42346 9.13302 9.39074 9.32243 9.39383C9.59282 9.39815 9.86521 9.40432 10.1336 9.38086C10.2661 9.36914 10.4515 9.42284 10.5171 9.22037C10.4743 9.19815 10.4254 9.17222 10.323 9.11914C10.4381 9.09938 10.5017 9.08333 10.566 9.0784C10.8544 9.05741 11.1422 9.03765 11.4313 9.02284C11.4668 9.02099 11.5043 9.05309 11.5411 9.06914C11.5056 9.08395 11.4702 9.11049 11.4347 9.11111C11.163 9.11852 10.8919 9.12099 10.6202 9.12469C10.6161 9.15494 10.6115 9.18457 10.6074 9.21482C10.7011 9.23827 10.7955 9.28457 10.8885 9.28086C11.2004 9.26914 11.5116 9.23025 11.8235 9.22099C12.0785 9.21296 12.3349 9.2321 12.5939 9.23889C12.5785 9.00802 12.4915 8.95679 12.2753 9.00988C12.1542 9.03951 12.027 9.05741 11.9018 9.06111C11.857 9.06235 11.8101 9.00494 11.7466 8.96235C11.8222 8.91975 11.865 8.89568 11.952 8.84691C11.8409 8.84445 11.7713 8.83642 11.7037 8.84198C11.4802 8.86049 11.258 8.8858 11.0344 8.90494C10.9782 8.90988 10.9066 8.91667 10.8658 8.89074C10.7386 8.81173 10.6208 8.85556 10.505 8.89753C10.2855 8.97716 10.076 8.99444 9.89265 8.83086C9.7588 8.71111 9.57876 8.73642 9.42148 8.68951C9.35857 8.67099 9.28762 8.67408 9.1531 8.65988C9.20062 8.71914 9.2314 8.75803 9.24412 8.77346C9.20597 8.8679 8.95901 8.82099 9.1618 8.99815C8.9416 8.90247 8.75554 8.8216 8.59157 8.75C8.50055 8.84136 8.445 8.89691 8.38476 8.95802C8.51126 9.01173 8.63574 9.06482 8.76023 9.1179C8.75956 9.13457 8.75889 9.15185 8.75822 9.16852C8.67122 9.17037 8.58421 9.17346 8.4972 9.17407C8.44098 9.17407 8.38409 9.17037 8.32787 9.17222C7.98118 9.18333 7.63517 9.20123 7.28848 9.20617C6.86148 9.21235 6.43448 9.20802 6.00747 9.20926C5.97602 9.20926 5.94389 9.22161 5.8609 9.23827C5.95326 9.25679 5.99543 9.26482 6.03759 9.27407C6.07306 9.28148 6.10787 9.29074 6.14334 9.29877C6.12125 9.32099 6.08042 9.34259 6.07976 9.36543C6.07708 9.44506 6.08779 9.52531 6.09381 9.61173C6.18349 9.59074 6.26448 9.5716 6.31601 9.55988C6.3555 9.61358 6.37892 9.67716 6.40971 9.68025C6.59912 9.69938 6.79723 9.73704 6.97927 9.70494C7.11714 9.68086 7.26171 9.6642 7.3882 9.63457C7.4297 9.68457 7.47387 9.73765 7.52942 9.80494C7.28915 9.82037 7.0462 9.8358 6.77982 9.85247C6.77982 9.93333 6.77982 10.0025 6.77982 10.0963C6.67876 10.0963 6.55896 10.0975 6.43113 10.0981C6.47597 10.1753 6.43514 10.3062 6.3729 10.3667C6.35349 10.3858 6.36085 10.4278 6.3555 10.4593L6.35416 10.4537C6.21897 10.4735 6.08444 10.4994 5.94858 10.5049C5.92917 10.5056 5.90507 10.4056 5.88031 10.3444C5.95527 10.3506 6.00547 10.3549 6.06169 10.3599C6.08377 10.279 6.10385 10.2037 6.12259 10.1327C6.09649 10.1198 6.05968 10.1111 6.03759 10.0895C5.92515 9.9821 5.93653 9.98765 5.84082 10.1068C5.8174 10.1358 5.70429 10.1049 5.63268 10.0994C5.5972 10.0969 5.55972 10.0778 5.52827 10.0852C5.36697 10.1241 5.18292 10.0611 5.16083 9.96235C5.07717 9.94506 4.99753 9.9284 4.89044 9.90556C4.89178 9.90494 4.85965 9.92654 4.79741 9.96852C4.90383 9.98765 4.98816 10.0025 5.07048 10.0173C4.94265 10.1068 3.98892 10.1321 3.80286 10.0327C4.01435 10.0222 4.19707 10.0123 4.37777 10.0031C4.37978 9.95123 4.38112 9.90864 4.38447 9.83148C4.52167 9.97346 4.6321 9.89444 4.74387 9.85247C4.85296 9.81173 4.96139 9.76914 5.09056 9.71914C5.02898 9.70556 4.9567 9.68395 4.88308 9.67469C4.691 9.65 4.49757 9.74876 4.29947 9.6642C4.25864 9.64691 4.17498 9.7142 4.14553 9.72716C4.0525 9.67222 3.96416 9.62099 3.83967 9.54815C3.92132 9.55185 3.98357 9.55494 4.07124 9.55926C4.04982 9.51482 4.03175 9.47716 3.99494 9.40062C4.16226 9.3821 4.31954 9.36482 4.47616 9.34753C4.48151 9.33951 4.4862 9.33148 4.49155 9.32346C4.31151 9.27901 4.13148 9.23519 3.95144 9.19074C3.95412 9.17222 3.95746 9.15309 3.96014 9.13457C4.07325 9.14198 4.18703 9.14877 4.31017 9.15679C4.31419 9.10556 4.31821 9.06049 4.31821 9.05617C4.48419 9.05741 4.63545 9.06173 4.78603 9.05617C4.80611 9.05556 4.84493 9.00124 4.84025 8.97778C4.80812 8.82284 4.88643 8.78518 5.04036 8.82037C5.05843 8.74198 5.07516 8.67222 5.08587 8.62531C5.25654 8.60741 5.41851 8.57716 5.58047 8.57901C5.67685 8.58025 5.80133 8.60741 5.86224 8.66728C5.97802 8.78148 6.05231 8.75556 6.142 8.65679C6.15003 8.64815 6.17546 8.65185 6.20692 8.64815C6.19086 8.84877 6.37022 8.71358 6.46325 8.77222C6.42912 8.80494 6.40168 8.83086 6.37357 8.85741C6.37625 8.8716 6.37892 8.88642 6.3816 8.90062C6.44384 8.89074 6.53754 8.90185 6.56432 8.8679C6.70219 8.69321 6.90163 8.68889 7.10376 8.66975C7.52942 8.62963 7.95441 8.57222 8.38208 8.65494C8.40417 8.65926 8.43094 8.63704 8.45571 8.63642C8.54807 8.63457 8.63775 8.55062 8.73547 8.67407C8.78098 8.73148 8.93759 8.71482 9.06944 8.7358C9.03664 8.69877 9.01857 8.67839 9.0005 8.65802C9.06007 8.64753 9.1203 8.63765 9.17987 8.62593C9.27825 8.60617 9.37329 8.54321 9.47235 8.64074C9.49577 8.66358 9.57274 8.6463 9.6236 8.63951C9.81903 8.61296 10.0125 8.56975 10.2086 8.55802C10.4796 8.54136 10.752 8.54753 11.0237 8.54321C11.1482 8.54136 11.2734 8.54445 11.3959 8.52963C11.4574 8.52222 11.515 8.48086 11.612 8.43765C11.4146 8.33827 11.2667 8.2642 11.1208 8.19074C11.1737 8.18025 11.2406 8.16667 11.3068 8.15309C11.3068 8.13642 11.3068 8.11975 11.3068 8.10309C10.835 8.09691 10.3632 8.09136 9.86521 8.08457C10.0232 7.90556 9.8786 7.79691 9.83911 7.67469C9.7434 7.66975 9.6303 7.80309 9.55935 7.62469C9.54797 7.5963 9.3666 7.61975 9.26487 7.63025C9.22203 7.63457 9.18255 7.66852 9.13302 7.67284C9.30503 7.46728 9.53258 7.48765 9.76884 7.53395C9.79895 7.54012 9.8351 7.51914 9.86856 7.51111C9.9047 7.50247 9.94151 7.49383 9.97765 7.4858C9.97765 7.46975 9.97765 7.45309 9.97832 7.43704C9.89265 7.43519 9.80699 7.42963 9.72199 7.4321C9.66376 7.43395 9.60553 7.45556 9.54797 7.4537C9.32644 7.44691 9.13636 7.47346 9.03062 7.69691C9.00987 7.74074 8.8546 7.7321 8.76023 7.74259C8.72877 7.7463 8.67456 7.71914 8.66452 7.73086C8.51594 7.9037 8.36 7.81173 8.20272 7.74877C8.18331 7.74136 8.15788 7.74691 8.13847 7.74691C8.13244 7.87654 8.15252 7.96235 8.34126 7.95556C8.53401 7.94877 8.70133 8.03025 8.76826 8.24074C8.47779 8.25247 8.19937 8.43889 7.90221 8.30617C7.86875 8.22654 7.83528 8.14753 7.79847 8.05988C7.84666 8.05124 7.91091 8.03951 7.97382 8.02778C7.96713 7.88457 7.96044 7.74568 7.95308 7.57593C7.89886 7.55123 7.80516 7.50926 7.71146 7.46667C7.71682 7.45494 7.72284 7.44321 7.7282 7.43148C7.65391 7.43827 7.58029 7.44506 7.50599 7.45185C7.50466 7.46111 7.50332 7.47099 7.50198 7.48025C7.54816 7.49012 7.59501 7.5 7.64119 7.50988C7.6432 7.52346 7.64521 7.53704 7.64788 7.55062C7.5341 7.57407 7.42033 7.59691 7.25568 7.63025C7.32529 7.55617 7.36076 7.51852 7.39958 7.47716C7.18742 7.4784 6.98931 7.47963 6.75573 7.48086C6.72427 7.52284 6.72427 7.5716 6.84541 7.59877C6.90163 7.61111 6.94915 7.65802 7.00136 7.68951C7.03147 7.70741 7.05958 7.73827 7.09104 7.74074C7.23761 7.75247 7.38486 7.75617 7.53477 7.78457C7.30789 7.92654 7.05356 7.89321 6.7999 7.86235C6.79522 7.87963 6.79053 7.89691 6.78585 7.91481C6.83136 7.92778 6.8762 7.94259 6.92238 7.9537C6.99199 7.97037 7.06226 7.98395 7.16868 8.00679C7.09238 8.04506 7.05557 8.06296 6.99868 8.09136C7.06293 8.12037 7.10576 8.14012 7.14927 8.15988C7.14994 8.17469 7.15128 8.18889 7.15195 8.2037C6.9003 8.21914 6.64798 8.24815 6.397 8.24383C6.28121 8.24136 6.11857 8.3358 6.04027 8.15864C6.03491 8.1463 5.95527 8.15432 5.9131 8.1642C5.82208 8.18457 5.73441 8.2179 5.64271 8.2358C5.43457 8.27654 5.30473 8.16975 5.16953 7.99938C5.27394 8.00123 5.34823 8.00247 5.46669 8.00432C5.31677 7.93518 5.20902 7.86049 5.08989 7.83704C4.96674 7.81296 4.82084 7.87099 4.70572 7.8358C4.51832 7.77778 4.53773 8.00617 4.39718 7.98827C4.47549 8.06482 4.44002 8.15864 4.31821 8.1821C4.20777 8.20309 4.10471 8.28272 3.9762 8.2142C3.95077 8.20062 3.8805 8.25864 3.79884 8.3C3.77274 8.25679 3.74597 8.20741 3.71384 8.16173C3.66365 8.09012 3.53849 8.10185 3.497 8.17963C3.43676 8.29259 3.3618 8.37469 3.20184 8.32531C3.1744 8.31667 3.12287 8.35432 3.09208 8.38025C3.05795 8.40864 3.03452 8.44815 3.00641 8.48272C2.96693 8.44938 2.9261 8.41728 2.88929 8.38148C2.87457 8.36728 2.86854 8.34506 2.86653 8.34136C2.63295 8.35185 2.41209 8.36173 2.16647 8.37284C2.18855 8.32222 2.20194 8.29198 2.21532 8.26111C2.29296 8.25741 2.3706 8.2537 2.44823 8.25C2.57406 8.2358 2.69988 8.22099 2.82571 8.20864C2.89397 8.20185 2.96358 8.2 3.03988 8.19506C3.04992 8.15556 3.06129 8.11111 3.07 8.07778C3.12488 8.07778 3.17976 8.08827 3.2246 8.07346C3.27078 8.05803 3.30625 8.0179 3.35779 7.98025C3.34172 7.94568 3.32499 7.90802 3.30759 7.87099C3.327 7.86605 3.34641 7.86049 3.36582 7.85556C3.3792 7.91173 3.39192 7.96852 3.40932 8.04198C3.48696 8.04753 3.5927 8.05494 3.71318 8.06358L3.44479 7.88395C3.44747 7.86543 3.45015 7.84691 3.45349 7.82839C3.6429 7.83395 3.83365 7.85864 4.02038 7.84012C4.21514 7.82099 4.40521 7.76049 4.59797 7.68148C4.51631 7.68148 4.43466 7.67593 4.35368 7.68333C4.12545 7.70494 3.8979 7.73765 3.66967 7.75432C3.62282 7.75802 3.57129 7.71173 3.52176 7.68827C3.5733 7.66543 3.62349 7.62407 3.6757 7.6216C4.13683 7.6037 4.59864 7.59198 5.05977 7.5784C5.07115 7.5784 5.08186 7.57222 5.09792 7.5679C5.07382 7.52037 5.04906 7.47284 5.0243 7.42407C4.71576 7.45247 4.40588 7.48148 4.096 7.50988C3.78947 7.53827 3.48361 7.56667 3.17507 7.59506C3.15633 7.49095 3.06464 7.45453 2.9 7.4858C2.92878 7.46358 2.95756 7.44136 3.00574 7.40494C2.94216 7.40802 2.89799 7.41543 2.85583 7.41049C2.82169 7.40617 2.7889 7.38704 2.7561 7.37407C2.75945 7.35556 2.7628 7.33765 2.76614 7.31914C3.13492 7.33457 3.50369 7.35062 3.87046 7.36605C3.83164 7.29198 3.8651 7.23765 3.99896 7.25185C3.98357 7.18827 3.97286 7.14444 3.95947 7.09136C4.08463 7.08148 4.20175 7.07222 4.33025 7.06235C4.35569 7.12407 4.38112 7.18642 4.41057 7.25802C4.3684 7.27716 4.33159 7.29383 4.29478 7.31049C4.29478 7.32222 4.29478 7.33395 4.29478 7.34506C4.45675 7.35864 4.61938 7.37654 4.78202 7.38457C4.88776 7.39012 4.99485 7.38148 5.10127 7.37963C5.10662 7.37963 5.11599 7.38333 5.118 7.38148C5.26859 7.22037 5.49681 7.28889 5.69559 7.24321C5.65075 7.17531 5.62063 7.13086 5.56776 7.05C5.79598 7.00432 6.00881 6.96111 6.22231 6.9179C6.12928 6.74444 6.36085 6.75124 6.37089 6.63951C6.38562 6.64198 6.40034 6.64506 6.41507 6.64753C6.41239 6.71482 6.40971 6.78148 6.40703 6.85432C6.76042 6.97037 6.78518 6.96111 6.7651 6.6679C6.90766 6.69938 7.03951 6.7537 7.17001 6.75185C7.3293 6.75 7.48725 6.70062 7.66461 6.66852C7.94839 6.7642 8.25091 6.56914 8.58354 6.63272C8.8894 6.69136 9.24077 6.55123 9.57207 6.49815C9.56805 6.4679 9.56203 6.42469 9.55132 6.35C9.41679 6.33827 9.26755 6.32531 9.11629 6.31235C9.09554 6.39259 9.10558 6.51111 8.96302 6.38642C8.9242 6.35309 8.81913 6.3537 8.7609 6.37593C8.53535 6.46049 8.30579 6.46111 8.06819 6.45C7.85001 6.43951 7.63048 6.46049 7.41163 6.46667C7.23226 6.47161 7.05289 6.47593 6.85612 6.48086C6.94447 6.35494 7.10175 6.45988 7.18742 6.32654C7.22423 6.26852 7.42501 6.3 7.55084 6.29136C7.55151 6.27099 7.55285 6.25062 7.55351 6.23086C7.45178 6.23086 7.34938 6.23704 7.24899 6.22839C7.14927 6.21975 7.00604 6.32407 6.97325 6.13765C6.85612 6.17593 6.75038 6.21049 6.6192 6.25309C6.63191 6.19383 6.64128 6.14938 6.65199 6.10309C6.57837 6.06667 6.50341 6.03025 6.40503 5.98148C6.46928 6.07593 6.26515 6.17593 6.44786 6.25494C6.45589 6.25864 6.45723 6.30432 6.44585 6.31296C6.42644 6.32778 6.39231 6.33765 6.36822 6.33333C6.33542 6.32716 6.30597 6.29259 6.27586 6.29259C6.16141 6.29259 6.01484 6.24074 6.01082 6.41914C5.84551 6.36852 5.67484 6.36975 5.57646 6.22037C5.60925 6.20556 5.65208 6.18704 5.73976 6.14815C5.62732 6.10432 5.54701 6.07284 5.44728 6.03395C5.5102 5.99568 5.56709 5.96111 5.67685 5.89383C5.44528 5.89074 5.25587 5.88827 5.06646 5.88519C5.06245 5.90556 5.05776 5.92531 5.05375 5.94568C5.21237 5.98519 5.39307 6.00062 5.37835 6.23519C5.22441 6.25617 5.03367 6.32037 4.85899 6.29383C4.70974 6.27099 4.57923 6.14383 4.39852 6.03827C4.48887 5.96914 4.57722 5.90247 4.66958 5.8321C4.5973 5.70988 4.66489 5.69444 4.7867 5.72346C4.76729 5.79691 4.74722 5.87037 4.71643 5.98395C4.84025 5.92963 4.94131 5.88519 5.06178 5.83148C4.95335 5.79012 4.86635 5.75741 4.77934 5.72407L4.77332 5.73395ZM24.8538 2.12901C24.8785 2.1179 24.9026 2.10741 24.9274 2.0963C24.908 2.0284 24.9033 1.90926 24.8678 1.90062C24.6604 1.85123 24.6115 1.70679 24.5606 1.54198C24.6082 1.52531 24.645 1.51173 24.6851 1.49753C24.657 1.45864 24.6289 1.42099 24.6128 1.39815C24.5559 1.42654 24.5138 1.44753 24.4709 1.46852C24.4636 1.45802 24.4556 1.44691 24.4482 1.43642L24.5252 1.33827C24.4462 1.32469 24.3772 1.31296 24.317 1.30309C24.3217 1.36111 24.3271 1.42284 24.3324 1.49136C24.0439 1.35247 23.7809 1.22531 23.5166 1.09815C23.5219 1.19136 23.5259 1.26975 23.5319 1.37901C23.2649 1.2321 23.0394 1.10802 22.8131 0.983333C22.8024 0.997531 22.7917 1.01111 22.781 1.02531C22.8714 1.14877 22.9443 1.2858 23.117 1.34383C23.1344 1.34938 23.1551 1.38395 23.1505 1.39938C23.125 1.4963 23.0929 1.59136 23.0594 1.69691C23.279 1.65864 23.4704 1.7216 23.5728 1.94136C23.5768 1.95 23.5902 1.95556 23.6002 1.96111C23.7923 2.07284 24.0085 2.1642 24.0613 2.41667C24.0995 2.34383 24.137 2.27099 24.1751 2.19815C24.1316 2.15926 24.0948 2.12654 24.0547 2.09074C24.1437 1.99877 24.1731 2.03951 24.2019 2.12716C24.2273 2.2037 24.2293 2.32284 24.3578 2.27346C24.3404 2.09321 24.3237 1.92284 24.3036 1.72037C24.4348 1.75494 24.5332 1.78086 24.6316 1.80679C24.6195 1.8179 24.6068 1.82901 24.5948 1.84012C24.6811 1.9358 24.7674 2.0321 24.8538 2.12778V2.12901ZM21.763 8.72593C21.8728 8.72593 21.9752 8.73519 22.0756 8.72407C22.352 8.69321 22.6204 8.59012 22.9088 8.6679C22.9764 8.68642 23.115 8.67654 23.125 8.64938C23.1859 8.4858 23.3245 8.50864 23.4737 8.50803C23.2475 8.41173 23.4148 8.34568 23.5266 8.24074C23.194 8.26358 22.9135 8.28333 22.6331 8.30247C22.6304 8.28333 22.6277 8.2642 22.6251 8.24444C22.7824 8.21482 22.939 8.1858 23.0962 8.15617C23.0962 8.14753 23.0969 8.13889 23.0976 8.13025C22.8439 8.13025 22.5903 8.13025 22.3272 8.13025C22.4035 8.39136 22.3159 8.47963 22.0622 8.43765C21.913 8.41296 21.7878 8.52222 21.763 8.72531V8.72593ZM12.893 5.81852C12.9466 5.81728 12.9961 5.80864 13.043 5.81605C13.1126 5.82716 13.2049 5.88272 13.2437 5.85864C13.3207 5.81049 13.3716 5.80864 13.4566 5.83272C13.4987 5.84506 13.5817 5.78889 13.6192 5.74383C13.6453 5.71235 13.6413 5.61049 13.6252 5.60556C13.4954 5.56296 13.3595 5.5358 13.2257 5.50432C13.2183 5.52037 13.211 5.53642 13.2036 5.55247C13.2217 5.57716 13.2397 5.60185 13.2652 5.63704C13.148 5.65 13.0369 5.66235 12.9038 5.67716C12.8977 5.62593 12.8877 5.53889 12.8777 5.45247C12.5662 5.50802 12.4049 5.57058 12.3938 5.64012C12.5015 5.63827 12.618 5.61296 12.7157 5.64136C12.786 5.66173 12.8321 5.7537 12.893 5.8179V5.81852ZM14.1225 9.97037C14.1198 10.0056 14.1172 10.0364 14.1152 10.0667C14.0904 10.0599 14.0469 10.058 14.0435 10.0463C13.9987 9.88519 13.8749 9.96358 13.7671 9.96358C13.8019 10.0864 13.729 10.1019 13.6272 10.0932C13.5951 10.0901 13.561 10.1 13.5282 10.1043C13.5536 10.134 13.5757 10.1864 13.6038 10.1895C13.7323 10.2037 13.8655 10.2228 13.9913 10.2056C14.2537 10.1685 14.512 10.1099 14.7516 10.0636C14.6479 9.90309 14.9076 10.0136 14.9491 9.90309C14.7476 9.89259 14.5562 9.88272 14.3461 9.8716C14.3788 9.91296 14.3956 9.93457 14.4217 9.9679C14.3106 9.96914 14.2102 9.96975 14.1218 9.97037H14.1225ZM16.7796 5.67963C16.5179 5.34877 16.2154 5.60864 15.949 5.55062C15.9684 5.62654 15.9831 5.68333 15.9858 5.69506C16.1444 5.74012 16.2736 5.77716 16.4115 5.81667C16.6116 5.61173 16.9007 5.81358 17.1423 5.73704C17.054 5.60617 16.9884 5.46296 16.7903 5.54259C16.7883 5.56728 16.7856 5.60185 16.7789 5.68025L16.7796 5.67963ZM9.18656 7.49074C9.19325 7.47222 9.19928 7.45309 9.20597 7.43457C9.10692 7.3679 9.01656 7.27161 8.90613 7.24259C8.75956 7.20432 8.59692 7.21852 8.44901 7.21111C8.44901 7.30556 8.44901 7.35988 8.44901 7.42901C8.69598 7.45 8.9416 7.47037 9.1879 7.49074H9.18656ZM5.18158 8.81543C5.17154 8.80185 5.16083 8.78827 5.15079 8.77469C5.15548 8.87407 5.16016 8.97284 5.16552 9.07716C5.21237 9.07716 5.26725 9.07716 5.32882 9.07778C5.33016 9.03148 5.33083 8.99074 5.3315 8.97593C5.42654 8.95432 5.50484 8.93642 5.60323 8.91358C5.67685 8.91852 5.77992 8.92469 5.89102 8.93148C5.84551 8.73086 5.67618 8.84259 5.60791 8.80803C5.55303 8.73704 5.51555 8.68889 5.4861 8.65062C5.37166 8.71235 5.27662 8.76358 5.18225 8.81482L5.18158 8.81543ZM15.516 5.79136C15.5936 5.7642 15.6947 5.72963 15.7997 5.69321C15.7997 5.6358 15.7997 5.56728 15.7997 5.49877C15.451 5.47901 15.3506 5.50802 15.2917 5.62407C15.3774 5.68765 15.4577 5.74753 15.5166 5.79136H15.516ZM17.2701 10.071C17.1256 10.0648 16.9737 10.0519 16.8211 10.0537C16.6772 10.0556 16.5179 10.0056 16.3967 10.1309C16.5206 10.2352 16.7695 10.0525 16.8097 10.2988C16.9683 10.2204 17.1189 10.1457 17.2701 10.0704V10.071ZM25.2226 8.06914C24.8879 7.80617 24.5513 8.02407 24.2233 8.01728C24.2581 8.05124 24.2963 8.06605 24.3358 8.06914C24.5974 8.09136 24.8638 7.99074 25.1242 8.09198C25.1442 8.09938 25.1757 8.08086 25.2226 8.06914ZM18.6636 5.69444C18.7727 5.81605 18.9099 5.83519 19.0571 5.79383C19.1241 5.77531 19.1803 5.72407 19.2439 5.68642L19.0009 5.52407C18.9748 5.75432 18.7767 5.59383 18.6636 5.69444ZM26.1729 2.91296C26.0036 3.13704 26.3717 3.07963 26.3356 3.23025C26.4366 3.23889 26.5377 3.24753 26.6381 3.25617C26.6461 3.2321 26.6541 3.20802 26.6622 3.18395C26.5009 3.09444 26.3396 3.00556 26.1729 2.91296ZM5.20969 7.71358C5.21437 7.72037 5.22241 7.73333 5.23111 7.74568C5.36296 7.66852 5.49079 7.6537 5.61929 7.75741C5.63669 7.77099 5.69224 7.76049 5.71901 7.74506C5.80267 7.69568 5.88031 7.63827 5.95259 7.58951C5.69693 7.55802 5.43055 7.51481 5.20969 7.71358ZM18.6141 5.67901C18.6382 5.57099 18.6582 5.47778 18.6863 5.35185C18.5672 5.36975 18.4494 5.38765 18.3323 5.40494C18.329 5.42346 18.3256 5.44198 18.3229 5.46049C18.4662 5.47963 18.5458 5.52963 18.4461 5.6642C18.5083 5.66975 18.5585 5.67407 18.6147 5.67901H18.6141ZM13.0557 9.24877C13.2632 9.30247 13.4325 9.39198 13.6132 9.26605C13.5309 9.15247 13.2464 9.13519 13.0557 9.24877ZM14.4043 5.64938C14.2209 5.5 14.0891 5.55864 13.9532 5.66173C13.9746 5.7 13.9994 5.74444 14.0261 5.79259C14.1553 5.74383 14.2711 5.7 14.4043 5.65V5.64938ZM23.4784 12.5846C23.6181 12.6023 23.7559 12.486 23.892 12.2358C23.8813 12.2259 23.8706 12.2161 23.8599 12.2062C23.7367 12.3284 23.6136 12.4506 23.4784 12.5846ZM25.8617 2.15679C25.9507 2.33765 26.1709 2.35432 26.3556 2.46173C26.3362 2.31296 26.0203 2.3679 26.1689 2.17284C26.0645 2.16728 25.9648 2.16173 25.8617 2.15679ZM6.60581 7.89198C6.42243 7.75247 6.3294 7.75309 6.18617 7.90679C6.33877 7.83148 6.45723 8.06667 6.60581 7.89198ZM25.7727 2.17284C25.7821 2.15679 25.7908 2.14012 25.8001 2.12407C25.6817 2.02778 25.5572 1.94444 25.3919 1.94691C25.3832 1.96543 25.3738 1.98395 25.3651 2.00247C25.501 2.05926 25.6368 2.11605 25.7727 2.17284ZM18.7526 8.89074C18.7526 8.86728 18.7526 8.84383 18.7533 8.82099C18.6007 8.82099 18.4481 8.82099 18.2955 8.82099C18.2955 8.85247 18.2968 8.88333 18.2968 8.91481C18.4488 8.90679 18.6007 8.89877 18.7526 8.89074ZM12.292 5.58765C12.2813 5.56914 12.2706 5.55 12.2599 5.53148C12.1836 5.54568 12.108 5.56049 12.0344 5.57407C12.0223 5.60494 12.0036 5.65247 11.9668 5.74753C12.0993 5.6821 12.1957 5.63457 12.292 5.58704V5.58765ZM25.0291 2.11605C25.0224 2.13395 25.0151 2.15185 25.0084 2.17037C25.2132 2.34012 25.2179 2.34136 25.3303 2.21358C25.2226 2.17901 25.1262 2.14753 25.0291 2.11605ZM23.2756 1.02531C23.2863 1.01296 23.2964 1.00062 23.3071 0.988889C23.2268 0.906173 23.1471 0.823457 23.0534 0.726543C23.0655 0.833951 23.0728 0.898765 23.0822 0.974691C23.1397 0.989506 23.208 1.00741 23.2763 1.02531H23.2756ZM24.6684 2.2858C24.7099 2.30247 24.7728 2.32778 24.8357 2.35309C24.657 2.16852 24.568 2.15556 24.4549 2.31358C24.5165 2.30556 24.578 2.29753 24.6691 2.2858H24.6684ZM25.9454 2.85432C25.9655 2.82593 25.9855 2.79753 26.0063 2.76914C25.8952 2.72469 25.7834 2.67963 25.6723 2.63519C25.6636 2.65432 25.6542 2.67346 25.6455 2.69198C25.7459 2.7463 25.8457 2.8 25.946 2.85432H25.9454ZM30.8874 4.65062C30.8981 4.63519 30.9094 4.62037 30.9201 4.60494C30.7682 4.51667 30.6156 4.42778 30.4637 4.33951C30.455 4.35247 30.4456 4.36543 30.4369 4.3784C30.5868 4.46914 30.7374 4.55988 30.8874 4.65062ZM5.62397 9.63704C5.62397 9.65185 5.62464 9.66667 5.62531 9.6821C5.77055 9.6821 5.91645 9.6821 6.06169 9.6821C6.06035 9.65679 6.05968 9.63148 6.05834 9.60679C5.91377 9.61728 5.76854 9.62778 5.62397 9.63765V9.63704ZM30.3693 4.33827C30.1788 4.18518 30.0595 4.14835 30.0113 4.22778C30.115 4.25988 30.2201 4.29259 30.3693 4.33827Z" fill="#FFC845"/>
<path d="M24.3431 10.3735C24.3358 10.4759 24.1524 10.437 24.2996 10.5531C24.1216 10.5784 23.9569 10.6019 23.7923 10.6253C23.789 10.6031 23.7849 10.5809 23.7816 10.5586C23.8753 10.55 23.9683 10.542 24.062 10.5333C24.0593 10.5093 24.0567 10.4852 24.054 10.4617C23.8726 10.4802 23.6912 10.4944 23.5105 10.5173C23.3466 10.5383 23.1518 10.5068 23.0788 10.7019C23.117 10.7364 23.1565 10.7728 23.196 10.8093C23.1886 10.8185 23.1812 10.8278 23.1732 10.837C23.0347 10.8228 22.8968 10.7981 22.7583 10.7988C22.6853 10.7988 22.613 10.8444 22.5394 10.8679C22.4457 10.8981 22.3507 10.9265 22.2797 10.9488C22.2456 11.0043 22.2242 11.0654 22.1787 11.1C22.1613 11.1136 22.0903 11.0679 22.0441 11.0488C22.0763 11.0204 22.1084 10.992 22.1439 10.9611C22.0374 10.9123 21.933 10.8154 21.7724 10.9377C21.8393 10.9426 21.8768 10.9457 21.9143 10.9481C21.917 10.9568 21.9196 10.9661 21.9217 10.9747C21.8594 10.9981 21.7965 11.0216 21.6887 11.0617C21.7269 10.9728 21.7436 10.9321 21.7744 10.8605C21.5971 10.8648 21.4378 10.8691 21.2791 10.8728C21.2771 10.8636 21.2751 10.8543 21.2731 10.8444C21.3173 10.8278 21.3615 10.8111 21.4056 10.7951C21.4076 10.7833 21.4097 10.771 21.4117 10.7593C21.3595 10.7519 21.2758 10.7228 21.2617 10.7407C21.2062 10.8117 21.1332 10.9 21.1406 10.9759C21.148 11.0537 21.2417 11.1247 21.3186 11.2265C21.1439 11.1963 20.99 11.1704 20.7953 11.1364C20.9284 11.0352 21.0121 10.9716 21.1205 10.8895C20.9934 10.8586 20.9157 10.8395 20.8776 10.8302C20.7953 10.7074 20.7277 10.6062 20.6688 10.5179C20.551 10.5395 20.4479 10.5679 20.3435 10.5747C20.1521 10.5864 20.3033 10.4302 20.229 10.3802C20.5155 10.5012 20.7805 10.3667 21.0509 10.3438C21.3541 10.3185 21.6586 10.3031 21.9618 10.2759C22.1311 10.2605 22.3052 10.3698 22.4731 10.2451C22.5381 10.1969 22.5916 10.2642 22.595 10.4043C22.4879 10.3889 22.3801 10.3741 22.2724 10.3586C22.269 10.3772 22.2657 10.3957 22.2623 10.4142C22.3038 10.4241 22.3453 10.4333 22.4383 10.4549C22.3018 10.4679 22.2181 10.4759 22.0917 10.4877C22.1934 10.5302 22.2476 10.5531 22.2904 10.571C22.4116 10.5426 22.532 10.5136 22.6525 10.4852C22.6733 10.4802 22.7034 10.4883 22.7161 10.4772C22.8325 10.3741 22.9309 10.3722 23.0728 10.4623C23.1357 10.5025 23.2776 10.4309 23.3854 10.4179C23.4356 10.4117 23.4878 10.4272 23.5393 10.429C23.6062 10.4321 23.6745 10.4364 23.7408 10.4309C23.9422 10.4136 24.143 10.392 24.3438 10.3716L24.3431 10.3735ZM21.83 10.7889C21.8347 10.7988 21.8393 10.8086 21.8433 10.8185C21.9578 10.816 22.0722 10.813 22.1914 10.8105C22.1927 10.766 22.1947 10.7191 22.1981 10.6265C22.0622 10.6864 21.9457 10.7377 21.8293 10.7889H21.83Z" fill="#FFC845"/>
<path d="M16.6738 5.01728L16.7668 4.89938C16.7073 4.88642 16.6477 4.87346 16.5888 4.85988C16.5902 4.84074 16.5908 4.82161 16.5922 4.80247C16.8779 4.78765 17.1637 4.77346 17.4729 4.75741C17.392 4.68395 17.3398 4.63704 17.2728 4.57654C17.2193 4.60309 17.0774 4.54444 17.0787 4.69877C17.0493 4.69383 17.0158 4.69444 16.9917 4.68148C16.9422 4.65494 16.8987 4.59815 16.8498 4.59506C16.72 4.58765 16.5888 4.60185 16.4349 4.60864C16.4864 4.52346 16.6939 4.43765 16.372 4.38642C16.39 4.37346 16.4088 4.36049 16.4269 4.34753C16.538 4.31111 16.6497 4.27469 16.7675 4.23642C16.7936 4.29198 16.813 4.33395 16.8371 4.3858C16.9395 4.31914 17.0312 4.25988 17.1229 4.2C17.139 4.2 17.1557 4.20123 17.1718 4.20123C17.0955 4.35679 17.1845 4.38951 17.2922 4.37593C17.5579 4.34259 17.8149 4.34198 18.0766 4.42037C18.2018 4.45802 18.3497 4.42778 18.4869 4.43333C18.5143 4.43457 18.5404 4.45926 18.5672 4.47346C18.5491 4.49506 18.5297 4.51605 18.5143 4.53889C18.5016 4.55802 18.4916 4.57901 18.4829 4.6C18.4795 4.60864 18.4849 4.6284 18.4829 4.62901C18.3865 4.64691 18.2901 4.67346 18.1931 4.67531C18.1549 4.67593 18.0492 4.7142 18.0673 4.59815C18.0706 4.57716 18.0043 4.54691 17.9488 4.50494C17.9515 4.79938 18.0853 4.89938 18.3791 4.86728C18.4086 4.8642 18.4401 4.86728 18.4695 4.87346C18.4728 4.87346 18.4742 4.92222 18.4662 4.92531C18.438 4.9358 18.4046 4.94136 18.3738 4.94074C18.2373 4.93704 18.1101 4.88704 17.9629 4.95062C17.8384 5.00432 17.6831 5.00926 17.5405 5.0142C17.2601 5.02284 16.9797 5.01667 16.6738 5.01667V5.01728Z" fill="#FFC845"/>
<path d="M2.73937 9.10185C2.44689 9.07222 2.15509 9.04259 1.86261 9.01296C1.87064 8.94136 1.87734 8.88395 1.88537 8.80926C2.04064 8.73457 2.21131 8.65309 2.3813 8.57099C2.39001 8.58704 2.39871 8.6037 2.40741 8.61975C2.34985 8.64383 2.29162 8.6679 2.19123 8.70926C2.34717 8.70926 2.45827 8.70988 2.56937 8.71049C2.56937 8.71358 2.56803 8.71667 2.56803 8.71975C2.70256 8.7358 2.83709 8.75185 2.97161 8.76852C2.97161 8.78025 2.97161 8.79136 2.97161 8.80309C2.93547 8.82037 2.89933 8.83704 2.84712 8.86173C2.91405 8.88765 2.96492 8.90741 3.01378 8.92654C2.98031 9.07839 2.85984 9.09568 2.73067 9.10185L2.73803 9.10062L2.73937 9.10185Z" fill="#FFC845"/>
<path d="M16.0514 5.05802C15.9162 5.08889 15.781 5.11914 15.6103 5.15802C15.599 5.15123 15.5521 5.12284 15.5046 5.09444C15.5032 5.11235 15.5026 5.12963 15.5012 5.14753C15.2007 5.12778 14.9002 5.10802 14.6004 5.08889C14.6004 5.09506 14.6004 5.10123 14.5997 5.10741C14.6399 5.12037 14.68 5.13395 14.7202 5.14691C14.7148 5.16173 14.7088 5.17654 14.7035 5.19074C14.6593 5.17593 14.6004 5.17284 14.5743 5.14444C14.5328 5.09877 14.5134 5.03642 14.4853 4.9821C14.6606 4.96358 14.7898 4.95309 14.9176 4.93457C14.9538 4.92963 14.9966 4.90926 15.018 4.88333C15.1278 4.74876 15.2683 4.7679 15.4437 4.7858C15.3433 4.86481 15.2683 4.92407 15.1934 4.98272C15.2001 5 15.2061 5.01667 15.2128 5.03395C15.2737 5.02839 15.3353 5.02654 15.3955 5.01728C15.5534 4.99197 15.7094 4.95247 15.868 4.94136C15.9356 4.93642 16.0072 4.98827 16.0775 5.0142C16.0688 5.02839 16.0608 5.04259 16.0521 5.05679L16.0514 5.05802Z" fill="#FFC845"/>
<path d="M5.90039 4.85803C6.00346 4.79321 6.10586 4.72901 6.22633 4.65309C6.14601 4.63642 6.06905 4.62037 5.99275 4.60432C5.99141 4.59506 5.99007 4.5858 5.98806 4.57654C6.13598 4.55 6.28456 4.52346 6.44786 4.49444C6.44384 4.55 6.43916 4.60926 6.43314 4.6963C6.54156 4.62778 6.63191 4.55309 6.73699 4.51049C6.85211 4.46358 6.98195 4.4463 7.15529 4.4037L6.83604 4.80926C6.78919 4.79136 6.72896 4.76852 6.6192 4.72716C6.70152 4.69815 6.74368 4.68333 6.80526 4.66173C6.80325 4.67099 6.80927 4.64568 6.82534 4.57778C6.73632 4.60062 6.66739 4.61173 6.60648 4.63765C6.57904 4.64938 6.57436 4.70988 6.54758 4.7179C6.34011 4.78333 6.12995 4.84136 5.92114 4.90123C5.91444 4.88704 5.90708 4.87284 5.90039 4.85864V4.85803Z" fill="#FFC845"/>
<path d="M24.7654 13.966C24.7219 13.992 24.6778 14.0179 24.6343 14.0438C24.6563 14.0401 24.6791 14.0358 24.7012 14.0321C24.6898 14.0667 24.6898 14.1142 24.6644 14.1333C24.5519 14.2185 24.4328 14.2963 24.315 14.3747C24.2969 14.3864 24.2615 14.3821 24.2514 14.3963C24.1303 14.5593 23.9335 14.5642 23.7388 14.6025C23.7863 14.5605 23.8271 14.5247 23.8713 14.4858C23.7936 14.4778 23.7267 14.4704 23.6598 14.4636C23.6598 14.4444 23.6611 14.4253 23.6618 14.4062C23.7401 14.4049 23.8224 14.416 23.896 14.3975C23.9502 14.3833 24.0112 14.3389 24.0359 14.2926C24.1216 14.1315 24.1899 14.1049 24.3665 14.1494C24.4094 14.1605 24.479 14.1012 24.5285 14.0648C24.5954 14.0161 24.6557 13.958 24.7186 13.9043C24.7346 13.9253 24.7507 13.9463 24.7668 13.9673L24.7654 13.966Z" fill="#FFC845"/>
<path d="M2.6276 9.79198C2.69453 9.75494 2.7213 9.74012 2.75276 9.72222C2.71661 9.69383 2.68181 9.66605 2.64835 9.64012C2.69386 9.60185 2.73736 9.56481 2.78087 9.52839C2.93547 9.5142 3.10011 9.49938 3.24334 9.48642C3.19381 9.61111 3.1483 9.72593 3.08539 9.88519C2.9763 9.86296 2.82169 9.83148 2.62693 9.79198H2.6276Z" fill="#FFC845"/>
<path d="M0.256335 8.78333C0.262358 9.04691 0.571567 8.86543 0.668612 9.02593C0.609046 9.05309 0.54948 9.08025 0.469836 9.11728C0.54078 9.13951 0.600346 9.15864 0.671959 9.18086C0.578259 9.27531 0.499953 9.25494 0.415624 9.17407C0.385506 9.14506 0.339995 9.13025 0.267043 9.09012C0.202123 8.99506 0.110431 8.85926 0 8.69753C0.159289 8.69012 0.266374 8.68518 0.37279 8.68025C0.378144 8.69136 0.383498 8.70309 0.388853 8.7142C0.349365 8.73457 0.309877 8.75494 0.256335 8.78272V8.78333Z" fill="#FFC845"/>
<path d="M19.5805 10.3833C19.6709 10.4056 19.7612 10.4284 19.875 10.4568C19.8522 10.4747 19.8228 10.4975 19.7893 10.5235C19.7913 10.5253 19.8127 10.5475 19.8348 10.5704C19.6193 10.6975 19.4681 10.6735 19.3944 10.4667C19.3683 10.5543 19.3509 10.6111 19.3309 10.6772C19.2465 10.6562 19.1555 10.634 19.0618 10.6105C19.1267 10.5457 19.1776 10.4951 19.2579 10.416C19.3309 10.4086 19.4594 10.3957 19.5879 10.3827L19.5805 10.384V10.3833Z" fill="#FFC845"/>
<path d="M13.5302 10.6056C13.3308 10.7451 13.1139 10.771 12.9111 10.6648L12.7364 10.8864C12.5678 10.8012 12.7157 10.7784 12.7779 10.7259C12.6996 10.7056 12.638 10.6895 12.5738 10.6722C12.6929 10.5426 13.3308 10.5037 13.5295 10.6049L13.5302 10.6056Z" fill="#FFC845"/>
<path d="M4.02305 6.31482C4.06522 6.29259 4.12679 6.25926 4.18301 6.22901C4.21581 6.28765 4.24459 6.33951 4.29679 6.4321C4.21447 6.45926 4.11943 6.49012 3.99695 6.53025C4.04648 6.55741 4.10337 6.58827 4.18435 6.6321C3.9153 6.67901 3.84971 6.44198 3.69711 6.39259C3.76069 6.34938 3.82963 6.29259 3.90927 6.25432C3.93002 6.24444 3.98423 6.29321 4.02372 6.31543L4.02305 6.31482Z" fill="#FFC845"/>
<path d="M9.80632 5.47963C9.66844 5.49012 9.53057 5.50185 9.3927 5.51173C9.08082 5.53457 8.76893 5.55679 8.45771 5.57963C8.43429 5.58148 8.40752 5.59444 8.38878 5.58765C8.3359 5.56852 8.28571 5.54198 8.23484 5.51852C8.28102 5.49691 8.32653 5.45679 8.37338 5.45556C8.67188 5.44877 8.97105 5.4537 9.27022 5.44877C9.44624 5.4463 9.62226 5.43272 9.79895 5.42469C9.80163 5.44321 9.80498 5.46111 9.80765 5.47963H9.80632Z" fill="#FFC845"/>
<path d="M3.48629 5.72346C3.63955 5.51728 3.71987 5.50494 3.96951 5.61358C4.02038 5.6358 4.094 5.61358 4.1723 5.61173C4.12211 5.77407 3.96081 5.67346 3.86912 5.72346C3.83097 5.74383 3.75467 5.72284 3.73325 5.74753C3.6342 5.86481 3.56459 5.79753 3.48629 5.72346Z" fill="#FFC845"/>
<path d="M2.09017 9.26173C2.01253 9.31667 1.93356 9.41728 1.8586 9.41481C1.7649 9.41173 1.67454 9.32346 1.60761 9.2463C1.50856 9.24753 1.40951 9.24815 1.31045 9.24938C1.31179 9.22284 1.31246 9.19568 1.3138 9.16914C1.56344 9.18272 1.81375 9.1963 2.0634 9.20988C2.07277 9.22716 2.08214 9.24444 2.09084 9.26235L2.09017 9.26173Z" fill="#FFC845"/>
<path d="M1.2723 8.89815C1.1592 8.89815 1.06282 8.91049 0.972466 8.89383C0.849319 8.87099 0.730856 8.82593 0.617078 8.77284C0.942349 8.6642 1.21207 8.71358 1.2723 8.89815Z" fill="#FFC845"/>
<path d="M4.23522 5.38889C4.43801 5.34444 4.6408 5.30062 4.84694 5.25556C4.78001 5.48457 4.58659 5.58272 4.3597 5.48951C4.44135 5.46111 4.50761 5.43827 4.57387 5.41543C4.57387 5.40802 4.57387 5.40062 4.57387 5.39321C4.46411 5.40802 4.35502 5.42222 4.24525 5.43704C4.24191 5.42099 4.23856 5.40494 4.23522 5.38889Z" fill="#FFC845"/>
<path d="M15.3199 4.4537C15.4751 4.74259 15.7489 4.47901 15.9537 4.55494C15.9563 4.57099 15.9597 4.58642 15.9624 4.60247C15.8078 4.61728 15.6538 4.63765 15.4986 4.64568C15.3332 4.65432 15.1666 4.65185 14.9551 4.65432C15.0936 4.57778 15.1987 4.51975 15.3192 4.45309L15.3199 4.4537Z" fill="#FFC845"/>
<path d="M9.21333 8.05494C9.36861 8.02284 9.52321 8.04197 9.6912 8.13272C9.58478 8.16049 9.47502 8.17963 9.37262 8.21728C9.26219 8.25802 9.16247 8.34691 9.0266 8.24753C9.14172 8.20988 9.24881 8.17531 9.39069 8.12901C9.30971 8.11543 9.26085 8.10741 9.21199 8.09938C9.21199 8.08457 9.21199 8.06975 9.21266 8.05494H9.21333Z" fill="#FFC845"/>
<path d="M8.03138 9.48951C7.9504 9.55309 7.86942 9.61605 7.77906 9.68704C7.70879 9.67469 7.62044 9.66111 7.53344 9.64198C7.51135 9.63704 7.48123 9.61605 7.47855 9.59938C7.47588 9.58333 7.50198 9.55124 7.52072 9.54691C7.68737 9.51173 7.85469 9.48148 8.02201 9.44938C8.02469 9.46296 8.02804 9.47593 8.03071 9.48951H8.03138Z" fill="#FFC845"/>
<path d="M26.3978 1.66358C26.5906 1.77716 26.7833 1.89012 26.9754 2.0037C26.9674 2.02284 26.9593 2.04198 26.9513 2.06111C26.8951 2.04259 26.8215 2.03951 26.7853 2.0037C26.6635 1.88272 26.4353 1.87778 26.3423 1.7284C26.3603 1.70679 26.3791 1.68519 26.3971 1.66358H26.3978Z" fill="#FFC845"/>
<path d="M7.41497 5.3679C7.59501 5.22284 7.71414 5.39444 7.84197 5.42593C7.7804 5.47222 7.71682 5.52037 7.65324 5.5679C7.52942 5.5463 7.4317 5.49877 7.41497 5.36852V5.3679Z" fill="#FFC845"/>
<path d="M4.41525 6.39815C4.62474 6.38642 4.83489 6.37531 5.04438 6.3642C5.04572 6.38272 5.04638 6.40124 5.04772 6.41914C4.84761 6.53951 4.63812 6.53889 4.42128 6.45494C4.41927 6.43642 4.41726 6.41728 4.41525 6.39877V6.39815Z" fill="#FFC845"/>
<path d="M16.5359 4.17346C16.8318 4.09444 17.1316 4.05802 17.4375 4.06852C17.4395 4.08519 17.4415 4.10185 17.4442 4.11852C17.143 4.15062 16.8418 4.18333 16.5406 4.21543C16.5393 4.20123 16.5373 4.18704 16.5359 4.17284V4.17346Z" fill="#FFC845"/>
<path d="M16.305 4.79938C16.2816 4.81914 16.2582 4.85679 16.2348 4.85617C15.9905 4.85309 15.7469 4.84444 15.5032 4.83704C15.5032 4.8142 15.5046 4.79136 15.5046 4.76852C15.7656 4.76667 16.0273 4.76481 16.2883 4.76358C16.2937 4.77531 16.2997 4.78765 16.305 4.79938Z" fill="#FFC845"/>
<path d="M27.3161 2.95556C27.2578 2.89444 27.1996 2.83333 27.1347 2.76543C27.0062 2.80988 26.8964 2.76358 26.8342 2.62469C27.0745 2.60247 27.3482 2.75 27.3622 2.91235C27.3469 2.92716 27.3308 2.94136 27.3154 2.95617L27.3161 2.95556Z" fill="#FFC845"/>
<path d="M6.59376 9.61543C6.60715 9.54321 6.61719 9.49197 6.62656 9.44136C6.67876 9.43086 6.73632 9.41975 6.83604 9.40062C6.78451 9.45926 6.75841 9.48889 6.73231 9.51852C6.73766 9.53272 6.74234 9.54691 6.7477 9.56049C6.81396 9.54136 6.8936 9.53704 6.9438 9.49938C7.06226 9.41049 7.1225 9.43272 7.15864 9.58086C6.97258 9.59198 6.7912 9.60309 6.59443 9.61481L6.59376 9.61543Z" fill="#FFC845"/>
<path d="M21.7289 5.17161C21.4699 5.20062 21.2109 5.23025 20.9519 5.25926C20.9492 5.24321 20.9465 5.22716 20.9438 5.21049C21.1861 5.08642 21.4572 5.13148 21.7175 5.11481C21.7215 5.13333 21.7249 5.15247 21.7289 5.17099V5.17161Z" fill="#FFC845"/>
<path d="M2.73201 9.10309C2.8826 9.12593 3.03319 9.14938 3.18444 9.17222C3.1831 9.18642 3.18243 9.2 3.1811 9.2142C2.93949 9.22469 2.69721 9.23519 2.45559 9.24568C2.45225 9.23457 2.44957 9.22346 2.44622 9.21235C2.54394 9.17531 2.64165 9.13889 2.7387 9.10185L2.73134 9.10309H2.73201Z" fill="#FFC845"/>
<path d="M20.8508 10.9735C20.7551 10.9599 20.6587 10.9457 20.563 10.9321C20.5349 10.9278 20.5048 10.9185 20.478 10.9228C20.4432 10.929 20.4118 10.9469 20.3783 10.9599C20.3923 10.9062 20.3957 10.8469 20.4245 10.8006C20.4392 10.7765 20.5095 10.7574 20.5369 10.7698C20.6467 10.8179 20.7497 10.8796 20.8555 10.9358C20.8535 10.9481 20.8521 10.9605 20.8501 10.9728L20.8508 10.9735Z" fill="#FFC845"/>
<path d="M21.9812 9.98086C22.19 9.99444 22.3707 10.0062 22.5508 10.0185C22.3734 10.1438 22.0408 10.1191 21.9812 9.98086Z" fill="#FFC845"/>
<path d="M16.3559 4.41481C16.1277 4.50247 15.8867 4.45988 15.6498 4.45494C15.6485 4.43889 15.6471 4.42346 15.6458 4.40741C15.8814 4.39259 16.1163 4.37716 16.3519 4.36235C16.3532 4.37963 16.3552 4.39691 16.3566 4.41481H16.3559Z" fill="#FFC845"/>
<path d="M21.1245 4.89383C21.3474 4.9 21.5469 4.90617 21.7456 4.91173C21.6058 5.02407 21.2042 5.00617 21.1245 4.89383Z" fill="#FFC845"/>
<path d="M2.44355 8.26049C2.36591 8.2642 2.28827 8.2679 2.21064 8.2716C2.05336 8.25 1.89674 8.22839 1.73879 8.20679C1.73411 8.21173 1.75887 8.16481 1.78297 8.16481C1.98241 8.16481 2.18186 8.17222 2.38064 8.18457C2.40339 8.1858 2.4228 8.23395 2.44355 8.26049Z" fill="#FFC845"/>
<path d="M5.13071 5.5642C5.03768 5.54877 4.94532 5.53395 4.81615 5.51235C4.9915 5.33827 5.14812 5.45185 5.29469 5.44938C5.30071 5.46605 5.30674 5.48272 5.31343 5.49938C5.24985 5.52161 5.18693 5.54321 5.12335 5.56543L5.13071 5.5642Z" fill="#FFC845"/>
<path d="M14.3106 4.46728C14.3233 4.45988 14.336 4.4463 14.3494 4.44506C14.5897 4.42778 14.8306 4.41235 15.0722 4.41667C14.832 4.57222 14.5642 4.43025 14.3173 4.51358C14.3153 4.49815 14.3126 4.48272 14.3106 4.46667V4.46728Z" fill="#FFC845"/>
<path d="M13.2009 4.98765C13.2478 5.03395 13.2806 5.06605 13.3187 5.1037C13.3428 5.05679 13.3635 5.01728 13.385 4.97593C13.4376 5.00432 13.4733 5.1142 13.4921 5.30556C13.3977 5.17037 13.1755 5.21852 13.2016 4.98765H13.2009Z" fill="#FFC845"/>
<path d="M10.0305 8.39568C10.226 8.36543 10.3752 8.34198 10.5573 8.31358C10.4287 8.48148 10.2353 8.51235 10.0305 8.39568Z" fill="#FFC845"/>
<path d="M7.99658 5.8358C7.79847 5.83765 7.59702 5.94506 7.36143 5.79383C7.6017 5.78704 7.79914 5.7821 7.99658 5.77654C7.99658 5.7963 7.99658 5.81605 7.99658 5.8358Z" fill="#FFC845"/>
<path d="M4.13616 9.8963C3.94274 9.90617 3.77475 9.9142 3.60274 9.92346C3.73192 9.76975 3.93872 9.75185 4.13616 9.8963Z" fill="#FFC845"/>
<path d="M23.0012 9.98457C23.1163 9.95679 23.2314 9.92901 23.3653 9.8963C23.3593 9.96728 23.3553 10.0173 23.3486 10.0907C23.2261 10.0722 23.115 10.0562 23.0039 10.0395C23.0025 10.021 23.0019 10.0025 23.0005 9.98395L23.0012 9.98457Z" fill="#FFC845"/>
<path d="M8.05012 10.3389C8.00729 10.3481 7.93434 10.3759 7.9263 10.3642C7.83997 10.2414 7.72887 10.2753 7.61107 10.3049C7.57493 10.3142 7.53009 10.2944 7.48993 10.2883C7.49261 10.266 7.49462 10.2432 7.49729 10.221L8.04075 10.258C8.0441 10.2852 8.04744 10.3117 8.05079 10.3389H8.05012Z" fill="#FFC845"/>
<path d="M3.19448 8.64691C3.34172 8.64074 3.48964 8.63519 3.63688 8.62901C3.64424 8.63766 3.6516 8.6463 3.65896 8.65556C3.60408 8.68765 3.54853 8.74691 3.49432 8.7463C3.38991 8.74506 3.2855 8.71049 3.1811 8.69012C3.18578 8.67593 3.1898 8.66173 3.19448 8.64691Z" fill="#FFC845"/>
<path d="M27.4439 2.37963C27.387 2.34938 27.3502 2.32716 27.3107 2.30988C27.2344 2.27531 27.1554 2.24568 27.0798 2.20926C27.0564 2.19815 27.041 2.17222 27.0216 2.15247C27.043 2.13889 27.0631 2.11481 27.0852 2.11296C27.1802 2.10494 27.3957 2.25741 27.4432 2.37963H27.4439Z" fill="#FFC845"/>
<path d="M29.1666 3.55679C29.3018 3.61728 29.437 3.67778 29.5729 3.73827C29.5615 3.75926 29.5508 3.78086 29.5394 3.80185C29.4029 3.74259 29.2664 3.68395 29.1298 3.62469C29.1419 3.60185 29.1546 3.57901 29.1666 3.55617V3.55679Z" fill="#FFC845"/>
<path d="M6.34814 10.4691C6.42644 10.4457 6.55829 10.5272 6.57101 10.3735C6.64128 10.4056 6.71156 10.4383 6.78183 10.4704C6.7738 10.4926 6.76577 10.5148 6.75774 10.5377C6.62857 10.442 6.46928 10.6247 6.3468 10.4642L6.34814 10.4691Z" fill="#FFC845"/>
<path d="M21.2725 5.3037C21.2858 5.33025 21.3006 5.35802 21.324 5.4037C21.1767 5.41481 21.0395 5.42531 20.903 5.4358C20.9003 5.41481 20.8977 5.39321 20.895 5.37222C21.0201 5.34938 21.1446 5.32654 21.2725 5.30309V5.3037Z" fill="#FFC845"/>
<path d="M19.199 4.97716C19.1087 4.97346 19.023 4.97037 18.9367 4.96667C18.9574 4.89383 18.9661 4.8463 18.9855 4.8037C18.9956 4.7821 19.027 4.76852 19.0491 4.75185C19.0538 4.77037 19.0531 4.79259 19.0638 4.80741C19.104 4.86235 19.1482 4.91481 19.1983 4.97716H19.199Z" fill="#FFC845"/>
<path d="M14.0542 4.99136C14.1647 4.98086 14.2751 4.97037 14.3855 4.96049C14.3882 4.98827 14.3909 5.01543 14.3936 5.04321C14.2825 5.05247 14.1714 5.06173 14.0603 5.07099C14.0583 5.04444 14.0563 5.0179 14.0542 4.99136Z" fill="#FFC845"/>
<path d="M5.4098 8.34198C5.58114 8.35123 5.75248 8.36049 5.92381 8.36975C5.92314 8.38642 5.92181 8.40309 5.92114 8.41975C5.7498 8.41482 5.57779 8.40926 5.40646 8.40432C5.4078 8.38395 5.40847 8.36296 5.4098 8.34259V8.34198Z" fill="#FFC845"/>
<path d="M3.53515 6.9784C3.59137 7.04136 3.61412 7.06605 3.64357 7.09938C3.67436 7.07346 3.70447 7.04753 3.73526 7.02161C3.74865 7.0321 3.76136 7.04198 3.77475 7.05247C3.74195 7.08951 3.71585 7.13889 3.67369 7.15926C3.63085 7.18025 3.57196 7.17161 3.52042 7.17654C3.52444 7.12531 3.52845 7.07407 3.53582 6.9784H3.53515Z" fill="#FFC845"/>
<path d="M26.187 1.64815C26.0873 1.59753 25.9869 1.54753 25.859 1.48333C26.019 1.44012 26.11 1.48333 26.187 1.64815Z" fill="#FFC845"/>
<path d="M7.86607 9.81235C7.95308 9.74815 8.04008 9.68457 8.14315 9.60864C8.1987 9.83766 7.93367 9.73642 7.92095 9.8716C7.90288 9.85185 7.88414 9.8321 7.86607 9.81235Z" fill="#FFC845"/>
<path d="M27.5021 2.36728C27.6072 2.44444 27.7123 2.52222 27.818 2.6C27.727 2.62058 27.6128 2.55391 27.4754 2.4C27.4841 2.38889 27.4934 2.3784 27.5021 2.36728Z" fill="#FFC845"/>
<path d="M24.8538 2.12901C24.7674 2.03333 24.6811 1.93704 24.5948 1.84136C24.6068 1.83025 24.6195 1.81914 24.6316 1.80802C24.5332 1.7821 24.4355 1.75617 24.3036 1.7216C24.3237 1.92407 24.3404 2.09444 24.3578 2.27469C24.2293 2.32407 24.2273 2.20494 24.2019 2.1284C24.1731 2.04074 24.1437 2 24.0547 2.09198C24.0948 2.12778 24.1316 2.16049 24.1751 2.19938C24.137 2.27222 24.0995 2.34506 24.0613 2.4179C24.0085 2.16481 23.7923 2.07346 23.6002 1.96235C23.5902 1.95679 23.5768 1.95123 23.5728 1.94259C23.4697 1.72284 23.279 1.65988 23.0594 1.69815C23.0922 1.59259 23.1244 1.49753 23.1505 1.40062C23.1545 1.38457 23.1337 1.35062 23.117 1.34506C22.9443 1.28765 22.8714 1.15062 22.781 1.02654C22.7917 1.01235 22.8024 0.998765 22.8131 0.984568C23.0387 1.10864 23.2649 1.23272 23.5319 1.38025C23.5259 1.27099 23.5219 1.19198 23.5166 1.09938C23.7809 1.22716 24.0446 1.3537 24.3324 1.49259C24.3271 1.42407 24.3217 1.36173 24.317 1.30432C24.3772 1.31481 24.4462 1.32654 24.5252 1.33951L24.4482 1.43765C24.4556 1.44815 24.4636 1.45926 24.4709 1.46975C24.5138 1.44877 24.5559 1.42716 24.6128 1.39938C24.6296 1.42222 24.657 1.45988 24.6851 1.49877C24.6443 1.51296 24.6082 1.52654 24.5606 1.54321C24.6122 1.70802 24.6604 1.85247 24.8678 1.90185C24.9033 1.91049 24.9087 2.02963 24.9274 2.09753C24.9026 2.10864 24.8785 2.11914 24.8538 2.13025V2.12901ZM23.3084 1.52654C23.3091 1.54259 23.3104 1.55802 23.3111 1.57407C23.449 1.64568 23.5862 1.71914 23.7254 1.78765C23.8077 1.8284 23.8914 1.87099 23.9804 1.89259C24.0118 1.9 24.0895 1.85 24.0941 1.81975C24.1008 1.77099 24.0647 1.71728 24.046 1.66296C23.9717 1.6642 23.8887 1.68519 23.8224 1.66296C23.6859 1.61728 23.5601 1.54506 23.4255 1.49383C23.3968 1.48272 23.3479 1.51481 23.3084 1.52716V1.52654Z" fill="#FFC845"/>
<path d="M21.763 8.72593C21.7878 8.52222 21.913 8.41296 22.0622 8.43827C22.3159 8.48025 22.4035 8.39198 22.3272 8.13086C22.5903 8.13086 22.8439 8.13086 23.0976 8.13086C23.0976 8.13951 23.0969 8.14815 23.0962 8.15679C22.939 8.18642 22.7824 8.21543 22.6251 8.24506C22.6277 8.2642 22.6304 8.28333 22.6331 8.30309C22.9135 8.28395 23.194 8.2642 23.5266 8.24136C23.4155 8.34568 23.2475 8.41173 23.4737 8.50864C23.3245 8.50926 23.1853 8.48642 23.125 8.65C23.115 8.67716 22.9764 8.68642 22.9088 8.66852C22.6211 8.59074 22.3527 8.69383 22.0756 8.72469C21.9752 8.7358 21.8721 8.72654 21.763 8.72654V8.72593Z" fill="#FFC845"/>
<path d="M12.893 5.81852C12.8321 5.75432 12.786 5.66235 12.7157 5.64198C12.618 5.61358 12.5015 5.63827 12.3938 5.64074C12.4049 5.57119 12.5662 5.50864 12.8777 5.45309C12.8877 5.53951 12.8977 5.62654 12.9038 5.67778C13.0369 5.66296 13.1474 5.65062 13.2652 5.63765C13.2397 5.60247 13.2217 5.57778 13.2036 5.55309C13.211 5.53704 13.2183 5.52099 13.2257 5.50494C13.3595 5.53642 13.4954 5.56358 13.6252 5.60617C13.6406 5.61111 13.6453 5.71296 13.6192 5.74444C13.5817 5.78889 13.4987 5.84506 13.4566 5.83333C13.3716 5.80864 13.3207 5.81111 13.2437 5.85926C13.2056 5.88333 13.1126 5.82778 13.043 5.81667C12.9961 5.80926 12.9466 5.81728 12.893 5.81914V5.81852Z" fill="#FFC845"/>
<path d="M14.1225 9.97037C14.2109 9.96975 14.3113 9.96852 14.4224 9.9679C14.3956 9.93395 14.3795 9.91296 14.3467 9.8716C14.5569 9.88272 14.7483 9.89259 14.9497 9.90309C14.9083 10.0136 14.6486 9.90309 14.7523 10.0636C14.5127 10.1093 14.2544 10.1685 13.992 10.2056C13.8662 10.2235 13.733 10.2037 13.6045 10.1895C13.5757 10.1864 13.5536 10.134 13.5289 10.1043C13.5617 10.1 13.5958 10.0901 13.6279 10.0932C13.7296 10.1019 13.8026 10.0864 13.7678 9.96358C13.8756 9.96358 13.9994 9.88519 14.0442 10.0463C14.0476 10.058 14.0911 10.0599 14.1158 10.0667C14.1185 10.0358 14.1205 10.0056 14.1232 9.97037H14.1225Z" fill="#FFC845"/>
<path d="M16.7796 5.67963C16.7856 5.60185 16.7889 5.56667 16.7909 5.54198C16.989 5.46235 17.0546 5.60494 17.143 5.73642C16.9014 5.81296 16.6122 5.61111 16.4121 5.81605C16.2743 5.77654 16.1451 5.74012 15.9865 5.69444C15.9838 5.68333 15.9691 5.62593 15.9497 5.55C16.216 5.60864 16.5185 5.34876 16.7802 5.67901L16.7796 5.67963Z" fill="#FFC845"/>
<path d="M9.18656 7.49074C8.94027 7.47037 8.69464 7.44938 8.44767 7.42901C8.44767 7.35988 8.44767 7.30494 8.44767 7.21111C8.59626 7.21914 8.75889 7.20432 8.90479 7.24259C9.01589 7.27161 9.10558 7.3679 9.20463 7.43457C9.19794 7.45309 9.19192 7.47222 9.18522 7.49074H9.18656Z" fill="#FFC845"/>
<path d="M5.18158 8.81543C5.27662 8.7642 5.37099 8.71296 5.48543 8.65124C5.51555 8.68951 5.55236 8.73827 5.60724 8.80864C5.67484 8.84321 5.84417 8.73148 5.89035 8.9321C5.77925 8.92531 5.67685 8.91852 5.60256 8.9142C5.50417 8.93704 5.4252 8.95494 5.33083 8.97654C5.33083 8.99074 5.32949 9.03148 5.32815 9.0784C5.26658 9.0784 5.2117 9.07778 5.16485 9.07778C5.16016 8.97346 5.15481 8.87469 5.15012 8.77531C5.16016 8.78889 5.17087 8.80247 5.18091 8.81605L5.18158 8.81543Z" fill="#FFC845"/>
<path d="M15.516 5.79136C15.4571 5.74753 15.3767 5.68765 15.2911 5.62407C15.3506 5.50802 15.4504 5.47901 15.7991 5.49877C15.7991 5.56667 15.7991 5.63519 15.7991 5.69321C15.694 5.72963 15.5929 5.7642 15.5153 5.79136H15.516Z" fill="#FFC845"/>
<path d="M17.2701 10.071C17.1189 10.1457 16.9676 10.221 16.8097 10.2994C16.7702 10.0531 16.5206 10.2352 16.3967 10.1315C16.5179 10.0062 16.6772 10.0562 16.8211 10.0543C16.973 10.0525 17.1256 10.0654 17.2701 10.0716V10.071Z" fill="#FFC845"/>
<path d="M25.2226 8.06914C25.1764 8.08086 25.1442 8.09938 25.1242 8.09198C24.8638 7.99074 24.5974 8.09198 24.3358 8.06914C24.2963 8.06605 24.2581 8.05124 24.2233 8.01728C24.5506 8.02407 24.8879 7.80679 25.2226 8.06914Z" fill="#FFC845"/>
<path d="M18.6636 5.69444C18.7767 5.59383 18.9748 5.7537 19.0009 5.52407L19.2439 5.68642C19.1803 5.72407 19.1241 5.77531 19.0571 5.79383C18.9099 5.83519 18.7727 5.81667 18.6636 5.69444Z" fill="#FFC845"/>
<path d="M26.1729 2.91296C26.3403 3.00556 26.5009 3.09506 26.6622 3.18395C26.6541 3.20802 26.6461 3.2321 26.6381 3.25617C26.537 3.24753 26.436 3.23889 26.3356 3.23025C26.3717 3.08025 26.0043 3.13704 26.1729 2.91296Z" fill="#FFC845"/>
<path d="M5.20969 7.71358C5.43055 7.51481 5.6976 7.55802 5.95259 7.58951C5.88031 7.63827 5.80267 7.69568 5.71901 7.74506C5.69224 7.76111 5.63602 7.77161 5.61929 7.75741C5.49079 7.6537 5.36296 7.66852 5.23111 7.74568C5.22308 7.73333 5.21437 7.72037 5.20969 7.71358Z" fill="#FFC845"/>
<path d="M18.6141 5.67901C18.5578 5.67407 18.5083 5.66975 18.4454 5.6642C18.5445 5.52963 18.4655 5.47963 18.3223 5.46049C18.3256 5.44198 18.329 5.42346 18.3316 5.40494C18.4494 5.38704 18.5672 5.36975 18.6857 5.35185C18.6582 5.47778 18.6375 5.57161 18.6134 5.67901H18.6141Z" fill="#FFC845"/>
<path d="M13.0557 9.24877C13.2464 9.13519 13.5309 9.15309 13.6132 9.26605C13.4325 9.39198 13.2632 9.30247 13.0557 9.24877Z" fill="#FFC845"/>
<path d="M14.4043 5.64938C14.2711 5.7 14.1553 5.74321 14.0261 5.79198C13.9994 5.74383 13.9746 5.7 13.9532 5.66111C14.0897 5.55802 14.2216 5.49938 14.4043 5.64877V5.64938Z" fill="#FFC845"/>
<path d="M23.4784 12.5846C23.6136 12.45 23.7367 12.3284 23.8599 12.2062C23.8706 12.2161 23.8813 12.2259 23.892 12.2358C23.7555 12.486 23.6176 12.6023 23.4784 12.5846Z" fill="#FFC845"/>
<path d="M25.8617 2.15679C25.9648 2.16235 26.0645 2.16728 26.1689 2.17284C26.0203 2.3679 26.3356 2.31296 26.3556 2.46173C26.1709 2.3537 25.9507 2.33765 25.8617 2.15679Z" fill="#FFC845"/>
<path d="M6.60581 7.89198C6.45723 8.06667 6.33944 7.83148 6.18617 7.90679C6.3294 7.75309 6.42243 7.75185 6.60581 7.89198Z" fill="#FFC845"/>
<path d="M25.7727 2.17284C25.6368 2.11605 25.501 2.05926 25.3651 2.00247C25.3738 1.98395 25.3832 1.96543 25.3919 1.94691C25.5565 1.94506 25.6817 2.02778 25.8001 2.12407C25.7908 2.14012 25.7821 2.15679 25.7727 2.17284Z" fill="#FFC845"/>
<path d="M18.7526 8.89074C18.6007 8.89877 18.4488 8.90679 18.2968 8.91481C18.2968 8.88333 18.2955 8.85247 18.2955 8.82099C18.4481 8.82099 18.6007 8.82099 18.7533 8.82099C18.7533 8.84445 18.7533 8.8679 18.7526 8.89074Z" fill="#FFC845"/>
<path d="M4.77332 5.73395C4.86032 5.76728 4.94733 5.8 5.05575 5.84136C4.93528 5.89444 4.83422 5.93889 4.7104 5.99383C4.74119 5.88025 4.7606 5.80679 4.78068 5.73333L4.77332 5.73457V5.73395Z" fill="#FFC845"/>
<path d="M12.292 5.58765C12.1957 5.63519 12.0993 5.68272 11.9668 5.74815C12.0042 5.65247 12.0223 5.60494 12.0344 5.57469C12.108 5.56049 12.1836 5.5463 12.2599 5.5321C12.2706 5.55062 12.2813 5.56975 12.292 5.58827V5.58765Z" fill="#FFC845"/>
<path d="M25.0291 2.11605C25.1262 2.14753 25.2226 2.1784 25.3303 2.21358C25.2179 2.34074 25.2132 2.34012 25.0084 2.17037C25.0151 2.15247 25.0224 2.13457 25.0291 2.11605Z" fill="#FFC845"/>
<path d="M23.2756 1.02531C23.2073 1.00741 23.1397 0.990123 23.0815 0.974691C23.0728 0.898765 23.0655 0.833333 23.0527 0.726543C23.1464 0.823457 23.2268 0.906173 23.3064 0.988889C23.2957 1.00123 23.2857 1.01358 23.2749 1.02531H23.2756Z" fill="#FFC845"/>
<path d="M24.6684 2.2858C24.578 2.29753 24.5158 2.30556 24.4542 2.31358C24.5673 2.15556 24.657 2.16852 24.835 2.35309C24.7721 2.32778 24.7092 2.30247 24.6677 2.2858L24.6684 2.2858Z" fill="#FFC845"/>
<path d="M25.9454 2.85432C25.845 2.8 25.7453 2.7463 25.6449 2.69198C25.6536 2.67284 25.6629 2.6537 25.6716 2.63519C25.7827 2.67963 25.8945 2.72469 26.0056 2.76914C25.9855 2.79753 25.9655 2.82593 25.9447 2.85432H25.9454Z" fill="#FFC845"/>
<path d="M30.8874 4.65062C30.7374 4.55988 30.5868 4.46914 30.4369 4.3784C30.4456 4.36543 30.455 4.35247 30.4637 4.33951C30.6156 4.42778 30.7682 4.51667 30.9201 4.60494C30.9094 4.62037 30.8981 4.63519 30.8874 4.65062Z" fill="#FFC845"/>
<path d="M5.62397 9.63704C5.76854 9.62654 5.91377 9.61605 6.05834 9.60617C6.05968 9.63148 6.06035 9.65679 6.06169 9.68148C5.91645 9.68148 5.77055 9.68148 5.62531 9.68148C5.62531 9.66667 5.62464 9.65185 5.62397 9.63642V9.63704Z" fill="#FFC845"/>
<path d="M30.3693 4.33827C30.2201 4.29198 30.115 4.25988 30.0113 4.22778C30.0595 4.14835 30.1788 4.18518 30.3693 4.33827Z" fill="#FFC845"/>
<path d="M21.83 10.7889C21.9464 10.7377 22.0629 10.6864 22.1987 10.6265C22.1954 10.7191 22.1934 10.766 22.192 10.8105C22.0729 10.813 21.9585 10.816 21.844 10.8185C21.8393 10.8086 21.8346 10.7988 21.8306 10.7889H21.83Z" fill="#FFC845"/>
<path d="M23.3084 1.52654C23.3479 1.5142 23.3968 1.4821 23.4255 1.49321C23.5601 1.54444 23.6859 1.61728 23.8224 1.66235C23.8887 1.68457 23.971 1.66358 24.046 1.66235C24.0647 1.71667 24.1015 1.77037 24.0941 1.81914C24.0895 1.84938 24.0118 1.89938 23.9804 1.89198C23.8914 1.87099 23.8077 1.82778 23.7254 1.78704C23.5862 1.71852 23.449 1.64506 23.3111 1.57346C23.3104 1.55741 23.3091 1.54198 23.3084 1.52593V1.52654Z" fill="#FFC845"/>
</svg>
