<svg width="41" height="44" viewBox="0 0 41 44" fill="none" xmlns="http://www.w3.org/2000/svg">
<path d="M33.5126 3.9968C32.9981 3.9968 32.5805 4.41282 32.5805 4.92568C32.5805 5.43855 32.9981 5.85729 33.5126 5.85729C34.0271 5.85729 34.4434 5.43855 34.4434 4.92568C34.4434 4.41282 34.0244 3.9968 33.5126 3.9968ZM33.5126 6.78753C32.485 6.78753 31.6498 5.95277 31.6498 4.92568C31.6498 3.8986 32.485 3.0652 33.5126 3.0652C34.5403 3.0652 35.3741 3.89996 35.3741 4.92568C35.3741 5.95141 34.5389 6.78753 33.5126 6.78753Z" fill="#005A8D"/>
<path d="M39.0972 36.5594C38.5827 36.5594 38.1664 36.9768 38.1664 37.4897C38.1664 38.0025 38.5827 38.4199 39.0972 38.4199C39.6117 38.4199 40.0279 38.0025 40.0279 37.4897C40.0279 36.9768 39.6103 36.5594 39.0972 36.5594ZM39.0972 39.3502C38.0709 39.3502 37.2357 38.5154 37.2357 37.4883C37.2357 36.4612 38.0695 35.6278 39.0972 35.6278C40.1248 35.6278 40.9587 36.4626 40.9587 37.4883C40.9587 38.514 40.1235 39.3502 39.0972 39.3502Z" fill="#005A8D"/>
<path d="M2.32689 38.4199C1.55717 38.4199 0.930755 39.046 0.930755 39.8153C0.930755 40.5846 1.55717 41.2106 2.32689 41.2106C3.0966 41.2106 3.72302 40.5846 3.72302 39.8153C3.72302 39.046 3.0966 38.4199 2.32689 38.4199ZM2.32689 42.1422C1.04403 42.1422 0 41.0988 0 39.8153C0 38.5318 1.04403 37.4897 2.32689 37.4897C3.60975 37.4897 4.65514 38.5331 4.65514 39.8153C4.65514 41.0974 3.60975 42.1422 2.32689 42.1422Z" fill="#005A8D"/>
<path d="M7.91278 38.885C8.42593 38.885 8.84354 39.301 8.84354 39.8153C8.84354 40.3295 8.42593 40.7455 7.91278 40.7455C7.39964 40.7455 6.98203 40.3295 6.98203 39.8153C6.98203 39.301 7.39827 38.885 7.91278 38.885Z" fill="#005A8D"/>
<path d="M36.7703 10.9736C37.2848 10.9736 37.701 11.391 37.701 11.9039C37.701 12.4167 37.2848 12.8341 36.7703 12.8341C36.2558 12.8341 35.8395 12.4181 35.8395 11.9039C35.8395 11.3896 36.2558 10.9736 36.7703 10.9736Z" fill="#005A8D"/>
<path d="M28.3921 6.32241C28.9053 6.32241 29.3229 6.73843 29.3229 7.25266C29.3229 7.76688 28.9053 8.1829 28.3921 8.1829C27.879 8.1829 27.4614 7.76552 27.4614 7.25266C27.4614 6.73979 27.8776 6.32241 28.3921 6.32241Z" fill="#005A8D"/>
<path d="M2.32689 2.60008C2.8414 2.60008 3.25901 3.01609 3.25901 3.53032C3.25901 4.04454 2.8414 4.46193 2.32689 4.46193C1.81238 4.46193 1.39613 4.04454 1.39613 3.53032C1.39613 3.01609 1.81238 2.60008 2.32689 2.60008Z" fill="#005A8D"/>
<path d="M28.5109 23.3069L28.9066 26.1235L32.2448 26.073L32.5546 23.2496C31.9404 23.5769 31.2513 23.757 30.5443 23.7693C29.8306 23.7802 29.1373 23.6192 28.5109 23.3069ZM28.5027 27.0606C28.2734 27.0606 28.0755 26.8901 28.0427 26.6596L27.445 22.4175C27.4191 22.2252 27.5146 22.037 27.6838 21.9442C27.853 21.8515 28.0632 21.8733 28.2092 22.0002C28.8411 22.5403 29.645 22.839 30.4747 22.839H30.5293C31.3754 22.8254 32.1875 22.5048 32.8139 21.9347C32.9585 21.8051 33.166 21.7765 33.3379 21.8651C33.5126 21.9524 33.6109 22.1379 33.5904 22.3289L33.125 26.5818C33.1005 26.8151 32.904 26.9924 32.6692 26.9965L28.5109 27.0606H28.5027Z" fill="#005A8D"/>
<path d="M32.4454 32.2056C32.2557 32.2056 32.0756 32.0869 32.0073 31.8973C31.92 31.6559 32.0469 31.3885 32.2885 31.3026C34.1336 30.6424 35.3741 28.8815 35.3741 26.9228C35.3741 25.196 34.4243 23.6206 32.8958 22.8104C32.6692 22.6903 32.5819 22.4094 32.7033 22.1816C32.8234 21.9538 33.1059 21.8678 33.3325 21.9879C35.1653 22.9604 36.3035 24.8509 36.3035 26.9214C36.3035 29.273 34.8173 31.3858 32.6024 32.1783C32.5505 32.1974 32.4973 32.2056 32.4454 32.2056Z" fill="#005A8D"/>
<path d="M28.7934 32.1292C28.7347 32.1292 28.676 32.1183 28.6187 32.0951C26.5019 31.2358 25.1345 29.2048 25.1345 26.9228C25.1345 25.02 26.0898 23.2673 27.692 22.232C27.909 22.0929 28.1956 22.1543 28.3348 22.3698C28.474 22.5867 28.4126 22.8745 28.197 23.0136C26.8622 23.8756 26.0652 25.3365 26.0652 26.9228C26.0652 28.8242 27.2034 30.5169 28.968 31.233C29.2069 31.3285 29.3215 31.5999 29.2232 31.8386C29.1509 32.0187 28.9776 32.1292 28.7934 32.1292Z" fill="#005A8D"/>
<path d="M32.4454 32.2056H32.4263C32.1752 32.1946 31.98 31.9887 31.98 31.7404V31.7213L32.197 26.5122C32.2079 26.2558 32.4222 26.0553 32.6815 26.0662C32.9313 26.0771 33.1278 26.2831 33.1278 26.5313V26.5504L32.9108 31.7595C32.8999 32.0091 32.6938 32.2056 32.4454 32.2056Z" fill="#005A8D"/>
<path d="M29.241 31.3326C29.7173 31.4922 30.2127 31.574 30.719 31.574C31.153 31.574 31.5802 31.514 31.995 31.3967L32.1766 27.0033L28.9953 27.0524L29.241 31.3326ZM30.719 32.5043C29.9957 32.5043 29.2888 32.3665 28.6187 32.0951C28.4522 32.0269 28.3389 31.87 28.3293 31.69L28.0387 26.6214C28.0318 26.4959 28.0769 26.3718 28.1628 26.279C28.2488 26.1863 28.3689 26.1331 28.4972 26.1303L32.6556 26.0662H32.6638C32.788 26.0662 32.9081 26.1167 32.9954 26.2067C33.0855 26.2981 33.1332 26.4222 33.1278 26.5504L32.9108 31.7595C32.9026 31.9491 32.7811 32.1142 32.6024 32.1783C31.9964 32.3951 31.3645 32.5043 30.719 32.5043Z" fill="#005A8D"/>
<path d="M20.7673 41.242C19.1009 41.242 17.4305 41.0415 15.7955 40.6364C11.195 39.4975 7.09666 36.7804 4.2539 32.9844C0.904825 28.5146 -0.483119 23.0286 0.34528 17.5413C1.17368 12.0566 4.11607 7.2281 8.63064 3.94497C12.6948 0.993291 17.6843 -0.376159 22.6807 0.0889632C24.1423 0.225363 25.4211 1.0233 26.1894 2.27954C26.9605 3.5385 27.0888 5.04708 26.5415 6.41653C25.3133 9.49779 25.7377 12.9391 27.6811 15.6221C27.8571 15.8663 28.0496 16.1063 28.2502 16.3369C28.4194 16.5292 28.4017 16.8238 28.2079 16.9929C28.0141 17.1621 27.7207 17.143 27.5514 16.9493C27.3303 16.6983 27.1188 16.4351 26.9264 16.1677C24.796 13.2256 24.3293 9.45005 25.6763 6.07144C26.1144 4.97752 26.012 3.77175 25.3951 2.76512C24.781 1.76258 23.7602 1.12423 22.5947 1.01648C17.8235 0.569089 13.0592 1.87716 9.17926 4.6979C4.86667 7.83235 2.05667 12.4427 1.26648 17.679C0.47493 22.9195 1.80146 28.1559 4.99905 32.4265C10.5358 39.8207 20.6363 42.3782 29.0144 38.5086C29.2478 38.4008 29.5249 38.5031 29.6327 38.7364C29.7405 38.9682 29.6381 39.2451 29.4048 39.3542C26.6971 40.6037 23.7397 41.2406 20.7673 41.2406" fill="#005A8D"/>
<path d="M32.2189 37.6793C32.0701 37.6793 31.9254 37.6097 31.834 37.4787C31.688 37.2673 31.7412 36.9768 31.9527 36.8322C32.0756 36.7477 32.197 36.6617 32.3185 36.5744C36.193 33.7728 38.9116 29.6658 39.9733 25.0105C40.2354 23.8729 39.9474 22.7081 39.1886 21.8133C38.423 20.9131 37.3094 20.4384 36.1316 20.5107C35.5338 20.5475 34.9224 20.5325 34.3178 20.4657C34.0613 20.4384 33.8784 20.2079 33.9057 19.9514C33.933 19.6977 34.1636 19.5136 34.4188 19.5409C34.9729 19.6023 35.5297 19.6159 36.0743 19.5818C37.5482 19.4918 38.9402 20.0851 39.8983 21.2118C40.8495 22.3316 41.2084 23.7911 40.8822 25.2178C39.77 30.0927 36.9218 34.3934 32.8644 37.3287C32.7375 37.4201 32.6105 37.5088 32.4836 37.5974C32.4004 37.6533 32.3089 37.6793 32.2189 37.6793Z" fill="#005A8D"/>
<path d="M29.6927 39.2192L29.8688 42.2841C29.8933 42.7247 30.2605 43.0725 30.704 43.0725H30.7176C31.1666 43.0643 31.5297 42.7069 31.5419 42.2582L31.7153 38.1035C31.0602 38.5127 30.3846 38.885 29.6927 39.2192ZM30.704 44C29.7691 44 28.994 43.2703 28.9394 42.3373L28.7442 38.956C28.7333 38.765 28.8411 38.5877 29.0144 38.5072C30.0339 38.0366 31.0233 37.4719 31.9514 36.8309C32.0974 36.7299 32.2885 36.7217 32.4413 36.8063C32.5969 36.8922 32.6897 37.0573 32.6815 37.2332L32.4713 42.2882C32.444 43.2307 31.6798 43.985 30.7313 44H30.704Z" fill="#005A8D"/>
<path d="M30.6276 12.8764C30.2495 14.2172 29.3379 15.4653 28.5095 16.5974C27.7261 17.6708 26.9837 18.6856 26.996 19.414C27.0246 21.3032 28.5859 22.839 30.4734 22.839L30.5293 22.839C32.4481 22.809 33.9862 21.2254 33.9562 19.3063C33.9316 17.7895 32.1015 15.067 30.764 13.0796C30.719 13.0114 30.6726 12.9432 30.6276 12.8764ZM30.4734 23.7693C28.0796 23.7693 26.1021 21.8215 26.0652 19.429C26.0489 18.3883 26.8404 17.3039 27.7589 16.0504C28.7592 14.681 29.892 13.1287 29.8756 11.6065C29.8715 11.3978 30.008 11.2137 30.2059 11.155C30.4051 11.095 30.6194 11.1741 30.7327 11.3487C30.9647 11.7116 31.2431 12.1248 31.5379 12.5613C33.0172 14.7614 34.8596 17.499 34.8869 19.294C34.9238 21.7233 32.9763 23.7311 30.543 23.7693H30.4734Z" fill="#005A8D"/>
<path d="M14.4281 5.85729C13.1452 5.85729 12.1012 6.89938 12.1012 8.1829C12.1012 9.46642 13.1452 10.5085 14.4281 10.5085C15.7109 10.5085 16.7563 9.46505 16.7563 8.1829C16.7563 6.90075 15.7123 5.85729 14.4281 5.85729ZM14.4281 11.4388C12.6321 11.4388 11.1704 9.97792 11.1704 8.1829C11.1704 6.38789 12.6321 4.92568 14.4281 4.92568C16.2241 4.92568 17.6871 6.38789 17.6871 8.1829C17.6871 9.97792 16.2254 11.4388 14.4281 11.4388Z" fill="#005A8D"/>
<path d="M8.84354 13.2979C7.56068 13.2979 6.51528 14.3427 6.51528 15.6235C6.51528 16.9043 7.56068 17.9505 8.84354 17.9505C10.1264 17.9505 11.1704 16.907 11.1704 15.6235C11.1704 14.34 10.1264 13.2979 8.84354 13.2979ZM8.84354 18.8807C7.04753 18.8807 5.58589 17.4199 5.58589 15.6235C5.58589 13.8271 7.04753 12.369 8.84354 12.369C10.6395 12.369 12.1012 13.8285 12.1012 15.6235C12.1012 17.4185 10.6395 18.8807 8.84354 18.8807Z" fill="#005A8D"/>
<path d="M8.84354 23.5333C7.56068 23.5333 6.51528 24.5767 6.51528 25.8603C6.51528 27.1438 7.56068 28.1859 8.84354 28.1859C10.1264 28.1859 11.1704 27.1424 11.1704 25.8603C11.1704 24.5781 10.1264 23.5333 8.84354 23.5333ZM8.84354 29.1161C7.04753 29.1161 5.58589 27.6553 5.58589 25.8603C5.58589 24.0652 7.04753 22.6044 8.84354 22.6044C10.6395 22.6044 12.1012 24.0652 12.1012 25.8603C12.1012 27.6553 10.6395 29.1161 8.84354 29.1161Z" fill="#005A8D"/>
<path d="M14.4281 30.9766C13.1452 30.9766 12.1012 32.0201 12.1012 33.3022C12.1012 34.5844 13.1452 35.6292 14.4281 35.6292C15.7109 35.6292 16.7563 34.5857 16.7563 33.3022C16.7563 32.0187 15.7123 30.9766 14.4281 30.9766ZM14.4281 36.5594C12.6321 36.5594 11.1704 35.0986 11.1704 33.3022C11.1704 31.5058 12.6321 30.0464 14.4281 30.0464C16.2241 30.0464 17.6871 31.5072 17.6871 33.3022C17.6871 35.0972 16.2254 36.5594 14.4281 36.5594Z" fill="#005A8D"/>
</svg>
