<svg width="41" height="39" viewBox="0 0 41 39" fill="none" xmlns="http://www.w3.org/2000/svg">
<path d="M24.5721 10.9304C24.455 10.9304 24.3393 10.8856 24.2492 10.7944L21.0365 7.54725C20.8575 7.36632 20.8575 7.07248 21.0365 6.89156C21.2154 6.71063 21.5073 6.71063 21.6849 6.89156L24.8977 10.1387C25.0766 10.3196 25.0766 10.6135 24.8977 10.7944C24.8075 10.8856 24.6905 10.9304 24.5721 10.9304Z" fill="#005A8D"/>
<path d="M8.71292 1.41205C6.6303 1.41205 4.67144 2.2337 3.19827 3.72329C0.156399 6.79905 0.156399 11.8024 3.19827 14.8768C4.67144 16.3678 6.6303 17.1867 8.71292 17.1867C10.7955 17.1867 12.7557 16.3678 14.2289 14.8768C17.2708 11.8024 17.2708 6.79905 14.2289 3.72329C12.7557 2.2337 10.7969 1.41205 8.71292 1.41205ZM8.71292 18.1145C6.38544 18.1145 4.19653 17.1976 2.5498 15.5325C-0.849934 12.0963 -0.849934 6.50385 2.5498 3.06624C4.19653 1.40117 6.38544 0.485647 8.71292 0.485647C11.0404 0.485647 13.232 1.40117 14.8787 3.06624C18.2771 6.50385 18.2771 12.0963 14.8787 15.5325C13.232 17.1976 11.0431 18.1145 8.71292 18.1145Z" fill="#005A8D"/>
<path d="M11.9579 6.48345C11.8409 6.48345 11.7225 6.43856 11.6337 6.34741C10.8534 5.55841 9.81612 5.12445 8.71292 5.12445C7.60972 5.12445 6.57379 5.55841 5.79348 6.34741C5.61454 6.5297 5.32395 6.5297 5.14501 6.34741C4.96608 6.16649 4.96608 5.87129 5.14501 5.69172C6.09753 4.72723 7.36621 4.19669 8.71292 4.19669C10.0596 4.19669 11.3297 4.72723 12.2835 5.69172C12.4611 5.87129 12.4611 6.16649 12.2835 6.34741C12.1934 6.43856 12.075 6.48345 11.9579 6.48345Z" fill="#005A8D"/>
<path d="M14.4361 20.155L26.2094 30.3209L29.5028 26.9908L19.4476 15.085C19.0117 16.2331 18.339 17.2819 17.4739 18.1567C16.6089 19.0327 15.5702 19.7143 14.4361 20.155ZM26.2336 31.416C26.1273 31.416 26.0224 31.3793 25.9349 31.3045L13.2199 20.3251C13.0907 20.2135 13.0342 20.0394 13.0719 19.8721C13.1082 19.7047 13.2333 19.5714 13.3961 19.5252C14.6863 19.1647 15.8716 18.4655 16.8255 17.501C17.7793 16.5365 18.4682 15.3407 18.826 14.0348C18.8704 13.8688 19.0023 13.7423 19.1691 13.7056C19.3346 13.6688 19.5068 13.7273 19.6171 13.8579L30.4769 26.7146C30.6303 26.8983 30.6208 27.1717 30.4513 27.3431L26.5578 31.28C26.469 31.3711 26.3507 31.416 26.2336 31.416Z" fill="#005A8D"/>
<path d="M11.514 17.6492L13.6262 19.4558C14.8276 19.0803 15.9295 18.407 16.8255 17.501C17.7188 16.5963 18.3847 15.4822 18.7588 14.2674L16.9708 12.1316C16.5429 13.4077 15.8299 14.5708 14.8787 15.5339C13.9262 16.4957 12.7759 17.2166 11.514 17.6492ZM13.5186 20.4352C13.4109 20.4352 13.306 20.3972 13.2212 20.3264L10.2628 17.7948C10.1296 17.6805 10.0731 17.501 10.1148 17.3309C10.1552 17.1609 10.2883 17.0276 10.4579 16.9881C11.8839 16.6589 13.189 15.9284 14.2289 14.8768C15.2689 13.8253 15.9913 12.5071 16.3169 11.0624C16.3559 10.8924 16.4864 10.7577 16.656 10.7155C16.8255 10.6747 17.0031 10.7332 17.1147 10.8679L19.6185 13.8593C19.7153 13.9763 19.7503 14.1354 19.7099 14.2824C19.3104 15.7407 18.5381 17.082 17.4739 18.1567C16.4098 19.2327 15.0832 20.0163 13.641 20.4203C13.6006 20.4312 13.5603 20.4352 13.5186 20.4352Z" fill="#005A8D"/>
<path d="M27.5305 30.2965L28.5046 31.28C28.7642 31.5439 29.1113 31.6881 29.4773 31.6881C29.8432 31.6881 30.1917 31.5439 30.4513 31.28C30.9881 30.7372 30.9881 29.8543 30.4513 29.3129L29.4773 28.328L27.5305 30.2965ZM29.4773 32.6159C28.8651 32.6159 28.2893 32.3737 27.8561 31.9357L26.5578 30.6243C26.3789 30.4434 26.3789 30.1495 26.5578 29.9686L29.1544 27.3445C29.3333 27.1636 29.6239 27.1636 29.8029 27.3445L31.1011 28.6559C31.9945 29.5605 31.9945 31.0324 31.1011 31.9357C30.6666 32.3737 30.0908 32.6159 29.4773 32.6159Z" fill="#005A8D"/>
<path d="M38.393 39C37.8037 39 37.2131 38.7728 36.7638 38.3185L30.4513 31.9357C30.2724 31.7548 30.2724 31.4609 30.4513 31.28C30.6303 31.0991 30.9222 31.0991 31.1011 31.28L37.4136 37.6641C37.9531 38.2096 38.833 38.2096 39.3724 37.6641C39.9119 37.1173 39.9119 36.229 39.3724 35.6821L37.9235 34.217C37.2239 33.5096 36.8391 32.5696 36.8391 31.5697C36.8391 30.5699 37.2239 29.6285 37.9235 28.9225C39.0105 27.8233 39.0105 26.0358 37.9235 24.938L28.7468 15.659C28.5678 15.4781 28.5678 15.1843 28.7468 15.0033C28.9257 14.8224 29.2163 14.8224 29.3952 15.0033L38.572 24.2823C40.0169 25.742 40.0169 28.1185 38.572 29.5782C37.4862 30.676 37.4862 32.4621 38.572 33.5613L40.0209 35.0264C40.4555 35.4658 40.6949 36.0508 40.6949 36.6724C40.6949 37.2941 40.4568 37.8791 40.0209 38.3198C39.5729 38.7728 38.9823 39 38.393 39Z" fill="#005A8D"/>
<path d="M23.9559 11.8133L26.8767 14.7639C27.1364 15.0265 27.4821 15.172 27.8494 15.172C28.2167 15.172 28.5624 15.0265 28.8234 14.7639C29.3602 14.2211 29.3602 13.3383 28.8234 12.7955L25.9027 9.84488L23.9559 11.8133ZM27.8494 16.1012C27.2373 16.1012 26.6614 15.859 26.2282 15.421L22.9832 12.1398C22.8971 12.0527 22.8487 11.9357 22.8487 11.8133C22.8487 11.6909 22.8971 11.5712 22.9832 11.4841L25.5798 8.85999C25.6659 8.77292 25.7816 8.72395 25.9027 8.72395C26.0237 8.72395 26.1421 8.77292 26.2282 8.85999L29.4719 12.1398C30.3666 13.0444 30.3666 14.5163 29.4719 15.421C29.0387 15.859 28.4629 16.1012 27.8494 16.1012Z" fill="#005A8D"/>
<path d="M12.5768 34.8618C12.671 34.8618 12.7665 34.8904 12.8472 34.9502L15.0805 36.5922L14.2276 33.934C14.1657 33.7436 14.233 33.5341 14.3944 33.4171L16.629 31.7752H13.867C13.6679 31.7752 13.4917 31.6459 13.4298 31.4541L12.5768 28.7973L11.7225 31.4541C11.662 31.6459 11.4857 31.7752 11.2866 31.7752H8.52457L10.7592 33.4171C10.9193 33.5341 10.9879 33.7449 10.9247 33.934L10.0731 36.5922L12.3064 34.9502C12.3871 34.8904 12.4826 34.8618 12.5768 34.8618ZM15.9537 38.2695C15.8595 38.2695 15.7653 38.2409 15.6833 38.1811L12.5768 35.897L9.46902 38.1811C9.30892 38.2994 9.09097 38.2994 8.92952 38.1811C8.76808 38.0627 8.70216 37.8532 8.7627 37.6628L9.94931 33.9694L6.84286 31.6867C6.68142 31.567 6.61415 31.3575 6.67469 31.1671C6.73658 30.9766 6.91282 30.846 7.11194 30.846H10.9543L12.1409 27.1527C12.2015 26.9609 12.3777 26.8316 12.5768 26.8316C12.7759 26.8316 12.9508 26.9609 13.0127 27.1527L14.1993 30.846H18.0403C18.2408 30.846 18.417 30.9766 18.4776 31.1671C18.5395 31.3589 18.4709 31.567 18.3108 31.6867L15.203 33.9694L16.3896 37.6628C16.4515 37.8546 16.3842 38.0627 16.2227 38.1811C16.1434 38.2409 16.0479 38.2695 15.9537 38.2695Z" fill="#005A8D"/>
<path d="M35.9122 5.33259C36.0077 5.33259 36.1005 5.36252 36.1826 5.42237L37.2831 6.22906L36.862 4.92176C36.8014 4.72995 36.8687 4.52046 37.0288 4.40211L38.1293 3.59406H36.7692C36.5714 3.59406 36.3951 3.46482 36.3333 3.27437L35.9135 1.96571L35.4924 3.27437C35.4305 3.46482 35.2556 3.59406 35.0552 3.59406H33.695L34.7969 4.40211C34.957 4.52182 35.0242 4.72995 34.9623 4.92176L34.5426 6.22906L35.6431 5.42237C35.7225 5.36252 35.818 5.33259 35.9122 5.33259ZM38.1549 7.90774C38.0607 7.90774 37.9652 7.87917 37.8858 7.81932L35.9122 6.36918L33.9385 7.81932C33.7771 7.93767 33.5605 7.93767 33.399 7.81932C33.2376 7.70233 33.1717 7.49147 33.2322 7.30102L33.9856 4.95577L32.0133 3.50563C31.8519 3.38728 31.7846 3.17779 31.8465 2.98734C31.907 2.79553 32.0833 2.66629 32.2824 2.66629H34.7215L35.4749 0.321044C35.5368 0.129234 35.7117 0 35.9108 0C36.1099 0 36.2862 0.129234 36.3481 0.321044L37.1015 2.66629H39.5393C39.7384 2.66629 39.9146 2.79553 39.9765 2.98734C40.0384 3.17915 39.9711 3.38728 39.8097 3.50563L37.836 4.95577L38.5894 7.30102C38.6527 7.49147 38.5841 7.70233 38.424 7.81932C38.3446 7.87917 38.2504 7.90774 38.1549 7.90774Z" fill="#005A8D"/>
<path d="M5.21094 22.7546C4.70508 22.7546 4.2934 23.1709 4.2934 23.6824C4.2934 24.1939 4.70508 24.6102 5.21094 24.6102C5.71679 24.6102 6.12982 24.1939 6.12982 23.6824C6.12982 23.1709 5.71814 22.7546 5.21094 22.7546ZM5.21094 25.5379C4.19922 25.5379 3.37586 24.7054 3.37586 23.6824C3.37586 22.6594 4.19922 21.8255 5.21094 21.8255C6.22265 21.8255 7.04736 22.6581 7.04736 23.6824C7.04736 24.7068 6.224 25.5379 5.21094 25.5379Z" fill="#005A8D"/>
<path d="M38.7065 13.4757C37.9477 13.4757 37.3302 14.1001 37.3302 14.8673C37.3302 15.6346 37.9477 16.259 38.7065 16.259C39.4653 16.259 40.0828 15.6346 40.0828 14.8673C40.0828 14.1001 39.4653 13.4757 38.7065 13.4757ZM38.7065 17.1867C37.4405 17.1867 36.4113 16.146 36.4113 14.8673C36.4113 13.5886 37.4405 12.5479 38.7065 12.5479C39.9725 12.5479 41.0003 13.5886 41.0003 14.8673C41.0003 16.146 39.9725 17.1867 38.7065 17.1867Z" fill="#005A8D"/>
<path d="M22.1881 0.949527C22.6953 0.949527 23.1056 1.36444 23.1056 1.87729C23.1056 2.39014 22.6953 2.80505 22.1881 2.80505C21.6809 2.80505 21.2706 2.38878 21.2706 1.87729C21.2706 1.3658 21.6822 0.949527 22.1881 0.949527Z" fill="#005A8D"/>
<path d="M26.7758 35.2808C27.2843 35.2808 27.6947 35.6971 27.6947 36.2086C27.6947 36.72 27.2843 37.1377 26.7758 37.1377C26.2672 37.1377 25.8596 36.7214 25.8596 36.2086C25.8596 35.6957 26.2699 35.2808 26.7758 35.2808Z" fill="#005A8D"/>
<path d="M3.83597 35.2808C4.34183 35.2808 4.75351 35.6971 4.75351 36.2086C4.75351 36.72 4.34183 37.1377 3.83597 37.1377C3.33011 37.1377 2.91709 36.7214 2.91709 36.2086C2.91709 35.6957 3.32877 35.2808 3.83597 35.2808Z" fill="#005A8D"/>
<path d="M33.1999 10.2285C33.7085 10.2285 34.1175 10.6434 34.1175 11.1563C34.1175 11.6691 33.7085 12.0827 33.1999 12.0827C32.6914 12.0827 32.2837 11.6691 32.2837 11.1563C32.2837 10.6434 32.6941 10.2285 33.1999 10.2285Z" fill="#005A8D"/>
</svg>
