<svg width="41" height="39" viewBox="0 0 41 39" fill="none" xmlns="http://www.w3.org/2000/svg">
<path d="M11.7671 16.1696C5.78975 16.1696 0.927122 20.9819 0.927122 26.896C0.927122 32.8101 5.78975 37.6237 11.7671 37.6237C17.7445 37.6237 22.6057 32.8114 22.6057 26.896C22.6057 20.9805 17.7431 16.1696 11.7671 16.1696ZM11.7671 38.5412C5.27861 38.5412 0 33.3173 0 26.896C0 20.4747 5.27861 15.2521 11.7671 15.2521C18.2556 15.2521 23.5315 20.476 23.5315 26.896C23.5329 33.3173 18.2542 38.5412 11.7671 38.5412Z" fill="#005A8D"/>
<path d="M11.7671 33.9523C7.83568 33.9523 4.63697 30.7867 4.63697 26.896C4.63697 26.6431 4.84496 26.4372 5.10053 26.4372C5.3561 26.4372 5.56409 26.6431 5.56409 26.896C5.56409 30.2809 8.34682 33.0348 11.7671 33.0348C12.0227 33.0348 12.2307 33.2406 12.2307 33.4935C12.2307 33.7465 12.0227 33.9523 11.7671 33.9523Z" fill="#005A8D"/>
<path d="M29.2329 16.1696C23.2569 16.1696 18.3956 20.9819 18.3956 26.896C18.3956 32.8101 23.2569 37.6237 29.2329 37.6237C35.2089 37.6237 40.0729 32.8114 40.0729 26.896C40.0729 20.9805 35.2102 16.1696 29.2329 16.1696ZM29.2329 38.5412C22.7458 38.5412 17.4671 33.3173 17.4671 26.896C17.4671 20.4747 22.7458 15.2521 29.2329 15.2521C35.72 15.2521 41 20.476 41 26.896C41 33.3159 35.7214 38.5412 29.2329 38.5412Z" fill="#005A8D"/>
<path d="M29.2329 33.9523C28.9773 33.9523 28.7707 33.7465 28.7707 33.4935C28.7707 33.2406 28.9773 33.0348 29.2329 33.0348C32.6545 33.0348 35.4359 30.2809 35.4359 26.896C35.4359 26.6431 35.6439 26.4372 35.8995 26.4372C36.155 26.4372 36.363 26.6431 36.363 26.896C36.3644 30.7867 33.1643 33.9523 29.2329 33.9523Z" fill="#005A8D"/>
<path d="M20.5 0.91752C14.524 0.91752 9.66137 5.72979 9.66137 11.6439C9.66137 17.558 14.524 22.3703 20.5 22.3703C26.476 22.3703 31.3386 17.558 31.3386 11.6439C31.3386 5.72979 26.476 0.91752 20.5 0.91752ZM20.5 23.2878C14.0115 23.2878 8.73425 18.0639 8.73425 11.6439C8.73425 5.22395 14.0115 0 20.5 0C26.9885 0 32.2657 5.2226 32.2657 11.6439C32.2657 18.0652 26.9885 23.2878 20.5 23.2878Z" fill="#005A8D"/>
<path d="M27.1666 12.1027C26.9096 12.1027 26.703 11.8968 26.703 11.6439C26.703 8.25903 23.9203 5.50647 20.5 5.50647C20.2444 5.50647 20.0364 5.29929 20.0364 5.04636C20.0364 4.79344 20.2444 4.5876 20.5 4.5876C24.4314 4.5876 27.6288 7.75318 27.6288 11.6439C27.6288 11.8968 27.4221 12.1027 27.1666 12.1027Z" fill="#005A8D"/>
<path d="M14.0088 32.576C14.5213 32.576 14.9373 32.9877 14.9373 33.4935C14.9373 33.9994 14.5213 34.411 14.0088 34.411C13.4963 34.411 13.0817 34.0007 13.0817 33.4935C13.0817 32.9863 13.4976 32.576 14.0088 32.576Z" fill="#005A8D"/>
<path d="M17.7186 4.12884C18.2298 4.12884 18.6458 4.53917 18.6458 5.04636C18.6458 5.55355 18.2298 5.96388 17.7186 5.96388C17.2075 5.96388 16.7915 5.55355 16.7915 5.04636C16.7915 4.53917 17.2061 4.12884 17.7186 4.12884Z" fill="#005A8D"/>
<path d="M1.95484 37.165C2.46734 37.165 2.88196 37.5753 2.88196 38.0825C2.88196 38.5897 2.46734 39 1.95484 39C1.44234 39 1.02772 38.5883 1.02772 38.0825C1.02772 37.5766 1.44234 37.165 1.95484 37.165Z" fill="#005A8D"/>
<path d="M20.5 37.165C21.0125 37.165 21.4271 37.5753 21.4271 38.0825C21.4271 38.5897 21.0125 39 20.5 39C19.9875 39 19.5729 38.5883 19.5729 38.0825C19.5729 37.5766 19.9875 37.165 20.5 37.165Z" fill="#005A8D"/>
<path d="M36.2638 13.3054C36.7749 13.3054 37.1909 13.7157 37.1909 14.2229C37.1909 14.7301 36.7749 15.1418 36.2638 15.1418C35.7527 15.1418 35.3367 14.7301 35.3367 14.2229C35.3367 13.7157 35.7499 13.3054 36.2638 13.3054Z" fill="#005A8D"/>
<path d="M4.73757 2.2938C5.24871 2.2938 5.66333 2.70413 5.66333 3.21132C5.66333 3.71851 5.24871 4.12884 4.73757 4.12884C4.22643 4.12884 3.80908 3.71851 3.80908 3.21132C3.80908 2.70413 4.22507 2.2938 4.73757 2.2938Z" fill="#005A8D"/>
<path d="M26.9912 32.576C27.5024 32.576 27.9183 32.9877 27.9183 33.4935C27.9183 33.9994 27.5024 34.411 26.9912 34.411C26.4801 34.411 26.0627 34.0007 26.0627 33.4935C26.0627 32.9863 26.4787 32.576 26.9912 32.576Z" fill="#005A8D"/>
<path d="M3.80908 9.17655C3.04237 9.17655 2.4184 9.79406 2.4184 10.5528C2.4184 11.3116 3.04237 11.9291 3.80908 11.9291C4.5758 11.9291 5.20113 11.3116 5.20113 10.5528C5.20113 9.79406 4.57716 9.17655 3.80908 9.17655ZM3.80908 12.8466C2.53123 12.8466 1.49128 11.8174 1.49128 10.5528C1.49128 9.28821 2.53123 8.25768 3.80908 8.25768C5.08694 8.25768 6.12689 9.28821 6.12689 10.5528C6.12689 11.8174 5.0883 12.8466 3.80908 12.8466Z" fill="#005A8D"/>
<path d="M37.6545 3.67008C36.6322 3.67008 35.7989 4.49343 35.7989 5.50647C35.7989 6.51951 36.6322 7.34151 37.6545 7.34151C38.6768 7.34151 39.5087 6.51816 39.5087 5.50647C39.5087 4.49477 38.6768 3.67008 37.6545 3.67008ZM37.6545 8.25768C36.1211 8.25768 34.8731 7.02401 34.8731 5.50647C34.8731 3.98893 36.1211 2.75256 37.6545 2.75256C39.1879 2.75256 40.4358 3.98758 40.4358 5.50647C40.4358 7.02535 39.1879 8.25768 37.6545 8.25768Z" fill="#005A8D"/>
</svg>
