<svg width="41" height="41" viewBox="0 0 41 41" fill="none" xmlns="http://www.w3.org/2000/svg">
<path d="M32.2777 40.129H36.6401V20.5C36.6401 19.2978 35.6617 18.3194 34.4583 18.3194C33.2548 18.3194 32.2777 19.2978 32.2777 20.5V40.129ZM37.0762 41H31.8416C31.6011 41 31.4055 40.8056 31.4055 40.5652V20.5C31.4055 18.8169 32.7752 17.4472 34.4583 17.4472C36.1413 17.4472 37.5124 18.8169 37.5124 20.5V40.5639C37.5111 40.8056 37.3167 41 37.0762 41Z" fill="#005A8D"/>
<path d="M34.4583 13.0848C33.2573 13.0848 32.2777 14.0631 32.2777 15.2666C32.2777 16.4701 33.2573 17.4472 34.4583 17.4472C35.6592 17.4472 36.6401 16.4688 36.6401 15.2666C36.6401 14.0644 35.6605 13.0848 34.4583 13.0848ZM34.4583 18.3194C32.7752 18.3194 31.4055 16.9497 31.4055 15.2666C31.4055 13.5835 32.7752 12.2125 34.4583 12.2125C36.1413 12.2125 37.5124 13.5823 37.5124 15.2666C37.5111 16.9497 36.1426 18.3194 34.4583 18.3194Z" fill="#005A8D"/>
<path d="M4.36244 40.129H8.72487V20.5C8.72487 19.2978 7.74649 18.3194 6.54429 18.3194C5.3421 18.3194 4.36244 19.2978 4.36244 20.5V40.129ZM9.15971 41H3.92632C3.68588 41 3.49021 40.8056 3.49021 40.5652V20.5C3.49021 18.8169 4.85994 17.4472 6.54429 17.4472C8.22865 17.4472 9.59711 18.8169 9.59711 20.5V40.5639C9.59711 40.8056 9.40143 41 9.15971 41Z" fill="#005A8D"/>
<path d="M6.54429 13.0848C5.34082 13.0848 4.36244 14.0631 4.36244 15.2666C4.36244 16.4701 5.34082 17.4472 6.54429 17.4472C7.74777 17.4472 8.72487 16.4688 8.72487 15.2666C8.72487 14.0644 7.74649 13.0848 6.54429 13.0848ZM6.54429 18.3194C4.85994 18.3194 3.49021 16.9497 3.49021 15.2666C3.49021 13.5835 4.85994 12.2125 6.54429 12.2125C8.22865 12.2125 9.59711 13.5823 9.59711 15.2666C9.59711 16.951 8.22609 18.3194 6.54429 18.3194Z" fill="#005A8D"/>
<path d="M20.4859 26.0416C18.7312 26.0416 17.1607 25.8766 15.837 25.6515C11.6741 24.9468 9.06379 23.5605 8.9538 23.5017C8.7415 23.3878 8.66221 23.1231 8.77603 22.9108C8.88986 22.6985 9.15332 22.6192 9.36562 22.733C9.39248 22.7471 11.9861 24.1207 16.0173 24.7985C19.7262 25.4213 25.4507 25.5671 31.66 22.7215C31.8787 22.6205 32.137 22.7164 32.238 22.9351C32.3378 23.1551 32.2432 23.4134 32.0232 23.5144C27.8129 25.4444 23.8188 26.0416 20.4859 26.0416Z" fill="#005A8D"/>
<path d="M20.4859 29.5305C18.7312 29.5305 17.1607 29.3656 15.837 29.1417C11.6741 28.4358 9.06379 27.0507 8.9538 26.9919C8.7415 26.878 8.66221 26.6133 8.77603 26.401C8.88986 26.1887 9.15332 26.1094 9.36562 26.2232C9.39248 26.2373 11.9861 27.6109 16.0173 28.2874C19.7262 28.9115 25.4507 29.0573 31.66 26.2104C31.8787 26.1094 32.137 26.2066 32.238 26.4253C32.3378 26.644 32.2432 26.9036 32.0232 27.0046C27.8129 28.9333 23.8188 29.5305 20.4859 29.5305Z" fill="#005A8D"/>
<path d="M12.3967 18.3194H27.9165V0.872232H12.3967V18.3194ZM28.3514 19.1917H11.9619C11.7201 19.1917 11.5245 18.996 11.5245 18.7555V0.436116C11.5245 0.195677 11.7201 0 11.9619 0H28.3514C28.5931 0 28.7875 0.195677 28.7875 0.436116V18.7555C28.7888 18.996 28.5931 19.1917 28.3514 19.1917Z" fill="#005A8D"/>
<path d="M15.7027 14.8292H24.4263V4.36244H15.7027V14.8292ZM24.8624 15.7027H15.2666C15.0262 15.7027 14.8305 15.5071 14.8305 15.2666V3.92504C14.8305 3.6846 15.0262 3.48893 15.2666 3.48893H24.8624C25.1042 3.48893 25.2986 3.6846 25.2986 3.92504V15.2666C25.2986 15.5071 25.1042 15.7027 24.8624 15.7027Z" fill="#005A8D"/>
<path d="M24.8624 4.36244C24.7512 4.36244 24.6399 4.31895 24.5542 4.23454C24.3841 4.06445 24.3841 3.78692 24.5542 3.61682L28.0431 0.127893C28.2145 -0.0422048 28.4908 -0.0422048 28.6596 0.127893C28.831 0.297991 28.831 0.57424 28.6596 0.744338L25.1707 4.23454C25.0863 4.31895 24.975 4.36244 24.8624 4.36244Z" fill="#005A8D"/>
<path d="M15.2666 4.36244C15.1515 4.36244 15.0351 4.3164 14.9494 4.22559L11.6447 0.735386C11.4784 0.561451 11.4861 0.285202 11.6613 0.12022C11.8365 -0.0460415 12.1128 -0.038368 12.2777 0.136846L15.5838 3.62577C15.7488 3.80099 15.7424 4.07596 15.5672 4.24222C15.4827 4.32279 15.374 4.36244 15.2666 4.36244Z" fill="#005A8D"/>
<path d="M11.9619 19.1917C11.8531 19.1917 11.7457 19.152 11.6613 19.0714C11.4861 18.9065 11.4784 18.6302 11.6447 18.4563L14.9494 14.9661C15.1157 14.7908 15.3919 14.7832 15.5672 14.9494C15.7424 15.1157 15.7488 15.3919 15.5825 15.5659L12.2777 19.0548C12.1921 19.1469 12.077 19.1917 11.9619 19.1917Z" fill="#005A8D"/>
<path d="M28.3514 19.1917C28.2401 19.1917 28.1288 19.1494 28.0444 19.0638L24.5542 15.5748C24.3841 15.4047 24.3841 15.1285 24.5542 14.9571C24.7256 14.787 25.0006 14.787 25.1719 14.9571L28.6596 18.4473C28.831 18.6174 28.831 18.8937 28.6596 19.0638C28.5752 19.1494 28.4639 19.1917 28.3514 19.1917Z" fill="#005A8D"/>
<path d="M40.5652 41H0.437395C0.196956 41 0 40.8056 0 40.5652C0 40.3247 0.196956 40.129 0.437395 40.129H40.5652C40.8069 40.129 41 40.3234 41 40.5652C41 40.8056 40.8069 41 40.5652 41Z" fill="#005A8D"/>
<path d="M17.0111 33.1486C16.2898 33.1486 15.7027 33.7357 15.7027 34.4583C15.7027 35.1809 16.2898 35.7653 17.0111 35.7653C17.7324 35.7653 18.3194 35.1796 18.3194 34.4583C18.3194 33.7369 17.7324 33.1486 17.0111 33.1486ZM17.0111 36.6388C15.8089 36.6388 14.8305 35.6605 14.8305 34.4583C14.8305 33.2561 15.8089 32.2777 17.0111 32.2777C18.2133 32.2777 19.1917 33.2548 19.1917 34.4583C19.1917 35.6617 18.2145 36.6388 17.0111 36.6388Z" fill="#005A8D"/>
<path d="M35.7679 1.74446C34.8049 1.74446 34.0221 2.52717 34.0221 3.48893C34.0221 4.45068 34.8049 5.23339 35.7679 5.23339C36.7309 5.23339 37.5124 4.45068 37.5124 3.48893C37.5111 2.52717 36.7296 1.74446 35.7679 1.74446ZM35.7679 6.1069C34.324 6.1069 33.1499 4.93284 33.1499 3.48893C33.1499 2.04501 34.324 0.872232 35.7679 0.872232C37.2118 0.872232 38.3833 2.04629 38.3833 3.48893C38.3833 4.93156 37.2092 6.1069 35.7679 6.1069Z" fill="#005A8D"/>
<path d="M2.18058 2.18058C2.66402 2.18058 3.05409 2.57193 3.05409 3.05281C3.05409 3.53369 2.66402 3.92504 2.18058 3.92504C1.69714 3.92504 1.30963 3.53497 1.30963 3.05281C1.30963 2.57065 1.6997 2.18058 2.18058 2.18058Z" fill="#005A8D"/>
<path d="M7.41653 5.66951C7.89741 5.66951 8.28748 6.06086 8.28748 6.54302C8.28748 7.02517 7.89741 7.41397 7.41653 7.41397C6.93565 7.41397 6.54429 7.02389 6.54429 6.54302C6.54429 6.06214 6.93309 5.66951 7.41653 5.66951Z" fill="#005A8D"/>
<path d="M32.7138 7.41525C33.196 7.41525 33.586 7.80532 33.586 8.28748C33.586 8.76964 33.196 9.15971 32.7138 9.15971C32.2316 9.15971 31.8416 8.76964 31.8416 8.28748C31.8416 7.80532 32.2316 7.41525 32.7138 7.41525Z" fill="#005A8D"/>
<path d="M21.3735 7.41397C21.8557 7.41397 22.2457 7.80532 22.2457 8.28748C22.2457 8.76964 21.8557 9.15971 21.3735 9.15971C20.8914 9.15971 20.5013 8.76964 20.5013 8.28748C20.5013 7.80532 20.8914 7.41397 21.3735 7.41397Z" fill="#005A8D"/>
<path d="M18.7568 7.41397C19.2377 7.41397 19.629 7.80532 19.629 8.28748C19.629 8.76964 19.2377 9.15971 18.7568 9.15971C18.2759 9.15971 17.8846 8.76964 17.8846 8.28748C17.8846 7.80532 18.2747 7.41397 18.7568 7.41397Z" fill="#005A8D"/>
<path d="M21.3735 10.0319C21.8557 10.0319 22.2457 10.422 22.2457 10.9042C22.2457 11.3863 21.8557 11.7764 21.3735 11.7764C20.8914 11.7764 20.5013 11.3863 20.5013 10.9042C20.5013 10.422 20.8914 10.0319 21.3735 10.0319Z" fill="#005A8D"/>
<path d="M18.7568 10.0319C19.2377 10.0319 19.629 10.422 19.629 10.9042C19.629 11.3863 19.2377 11.7764 18.7568 11.7764C18.2759 11.7764 17.8846 11.3863 17.8846 10.9042C17.8846 10.422 18.2747 10.0319 18.7568 10.0319Z" fill="#005A8D"/>
<path d="M28.3514 30.9693C28.8348 30.9693 29.2249 31.3594 29.2249 31.8403C29.2249 32.3212 28.8348 32.7138 28.3514 32.7138C27.8679 32.7138 27.4804 32.3224 27.4804 31.8403C27.4804 31.3581 27.8705 30.9693 28.3514 30.9693Z" fill="#005A8D"/>
</svg>
