<svg width="286" height="56" viewBox="0 0 286 56" fill="none" xmlns="http://www.w3.org/2000/svg">
<path d="M247.038 49.251C252.637 52.0857 259.232 53.6545 265.828 53.4614C265.259 53.682 265.755 55.5307 264.62 55.5531C260.08 55.6635 252.243 57.4974 248.304 52.8335C247.178 51.5058 246.963 50.3101 247.038 49.251ZM241.321 7.9836C241.406 7.68879 243.42 -1.97004 244.139 4.65732C244.194 5.17158 244.201 7.00504 244.351 8.42081C242.076 9.83981 240.031 11.4808 238.284 13.2841C242.341 13.3878 246.442 14.1956 250.362 15.7224C251.271 16.0723 250.623 18.2605 250.68 18.5287C251.612 22.725 252.215 17.0899 252.512 16.8742C254.848 15.328 257.031 20.0584 258.619 13.3072C261.126 13.8812 263.63 14.0678 266.131 14.1219C276.737 13.9866 286.326 21.2231 285.992 29.33C286.186 37.4698 275.986 44.4092 266.131 43.3843C264.189 42.8309 262.248 42.0133 260.309 40.8092C260.184 40.7386 260.406 37.9335 260.158 37.8026C257.159 36.2238 257.734 40.5885 255.751 45.9151C255.251 47.2493 253.731 40.8103 253.596 40.3392C253.107 38.6009 253.614 34.4345 253.45 34.095C252.092 31.4533 252.314 45.2365 250.483 45.2352C250.426 45.2121 250.665 42.6797 250.511 42.4251C250.034 41.6319 249.561 42.6366 249.094 41.7626C248.024 39.7388 247.642 33.0548 246.008 36.9417C245.802 37.4474 246.117 45.2459 244.482 44.8674C243.83 44.7102 240.946 44.8221 240.136 44.3127C239.328 43.8039 239.883 41.3052 239.826 41.1944C237.649 37.8743 238.472 36.5078 237.381 31.6142C236.291 26.7448 236.594 38.3577 236.15 39.6555C236.072 39.8827 235.957 39.9832 235.82 39.9925C238.094 43.1597 241.242 45.9096 244.924 48.0896C244.478 49.6423 244.134 51.1877 244.003 51.2907C241.258 53.432 239.35 50.3105 236.879 51.1732C236.369 51.3511 236.869 54.1565 236.435 54.2761C234.952 54.7059 233.392 53.4076 231.975 53.5808C231.341 53.6667 231.457 55.7832 230.873 55.5954C229.473 55.1708 228.234 54.2292 226.869 52.2037C226.747 52.0162 227.583 49.4365 226.549 49.3011C224.873 49.0873 222.792 47.0842 220.863 48.9987C220.291 49.5754 220.269 54.3227 219.039 50.9883C218.782 50.2899 219.11 44.6184 217.677 49.4725C217.436 50.2881 215.029 56.7596 213.848 52.4502C213.536 51.3161 212.74 46.6713 212.052 47.3674C211.96 47.485 212.333 50.011 211.764 50.2295C209.755 50.9501 207.648 50.5736 205.584 51.2368C205.033 51.4174 205.852 54.0322 205.031 54.2164C202.772 54.7219 199.951 53.8778 197.741 52.9413C196.927 52.5904 197.49 50.542 197.431 50.3104C196.478 46.5628 195.913 51.5091 195.597 51.7742C193.629 53.3715 192.131 50.9456 190.317 51.4333C189.818 51.5617 190.172 53.9192 190.072 54.1201C189.04 56.0689 189.808 51.9442 189.154 51.4352C187.322 50.0011 185.281 50.051 183.428 50.2064C182.747 50.2665 183.511 52.9796 182.901 52.9991C179.286 53.1608 175.526 52.5581 171.998 50.8381C171.336 50.5081 171.752 48.5787 171.615 48.1166C170.66 44.9033 169.262 49.0758 168.941 49.4456C167.478 51.1648 166.908 49.3909 165.616 49.5977C159.303 50.6072 151.51 48.6714 145.551 47.4252C137.787 45.7729 131.761 43.5937 124.356 43.2033C123.887 43.1771 124.361 45.3298 123.955 45.3277C118.718 45.1766 113.561 43.7362 108.313 43.5846C107.884 43.5694 108.503 45.4449 107.813 45.4683C106.396 45.5255 104.6 45.1416 103.167 44.3743C102.467 44.0056 103.403 42.6686 102.7 42.3346C101.061 41.5592 99.305 41.2144 97.6219 41.2464C96.9055 41.2608 97.9853 43.0976 97.0543 42.976C90.7122 42.1972 84.4832 41.2977 78.0743 38.4999C77.635 38.3044 77.25 35.4705 76.316 35.8881C76.2457 36.6416 76.2484 37.5382 76.2177 38.3477C66.9851 37.3018 57.8461 34.9268 48.5877 33.3284C48.1989 33.2584 48.8712 34.3154 48.116 34.172C45.3266 33.6564 42.5896 33.1833 39.8116 32.5195C39.6021 32.5619 39.3893 32.6049 39.1784 32.6582C38.9666 32.7172 38.3006 34.3035 37.8061 34.2664C37.0716 34.2149 36.6683 33.4907 36.1437 33.444C33.9439 33.2345 31.9304 33.8007 29.8095 33.6867C29.0042 33.6488 29.2842 33.0132 28.3237 32.9856C27.3643 32.9661 26.7231 33.7507 25.4227 33.3689C24.4408 33.073 23.4591 31.5963 22.1559 31.5083C22.106 32.9222 21.2094 32.9098 19.6182 33.261C19.3122 33.3274 19.6394 33.7833 19.4946 33.8369C18.9058 34.0559 18.3611 33.6807 17.8019 33.9139C17.6659 33.9692 17.6584 34.3891 17.5472 34.4552C16.6012 35.0158 15.0424 34.0401 14.7748 33.9024C13.7496 33.3265 13.2707 33.8031 12.4843 33.5807C11.6988 33.3738 12.8722 33.1203 11.9546 33.0049C10.0528 32.7814 7.60967 32.8999 5.67836 32.922C4.90769 32.9349 5.43297 33.2494 5.32267 33.2591C5.29319 33.2606 5.26386 33.2636 5.23438 33.2649C3.59244 33.3179 2.40874 32.4966 1.36472 32.35C1.55259 31.5852 1.4187 31.538 1.04435 31.3716C0.696751 31.2222 0.0739326 30.9327 0 30.0137C0.00365537 29.8603 0.497404 29.6737 0.741643 30.1119C0.992304 30.533 1.25364 31.2559 1.99789 31.6065C2.17428 31.7463 3.51146 31.6605 3.62497 31.5969C4.60293 31.4595 4.40927 32.444 4.48013 32.5426C4.64186 32.7586 4.93236 32.8518 5.23438 32.8411C6.00804 32.8258 6.86377 32.3652 7.15408 32.3018C9.06253 31.9056 10.6838 32.0074 12.28 31.6605C13.3242 31.4319 13.4277 30.2683 14.2476 30.2044C16.9732 29.9517 17.9251 31.8598 20.4936 29.9078C21.0435 29.4808 20.4968 27.8999 22.4687 28.9505C22.5919 29.0028 24.0364 30.0993 24.8854 29.2394C22.9751 28.837 21.0651 28.4068 19.202 27.9875C18.6075 27.855 19.2394 27.6887 18.816 27.5984C15.8128 27.0102 12.5463 26.6068 9.67667 26.0595C7.75612 25.7248 8.4664 25.7087 7.4467 25.5395C7.30231 25.5185 6.1107 25.4378 6.04918 25.422C5.89442 25.3888 6.46677 25.3103 6.23333 25.2679C6.19475 25.2636 5.23459 25.3852 5.23438 25.3854C5.23444 25.3853 5.31782 25.3758 5.53205 25.343C5.59794 25.335 6.75355 25.1547 7.03804 25.0869C7.2354 25.0398 6.87916 25.0692 7.28273 24.9732C7.68681 24.8705 8.13137 24.8291 8.80133 24.6651C9.47034 24.4921 9.17712 24.4633 10.5142 24.1335C13.62 23.3632 17.6921 22.432 20.7862 21.9108C21.7541 21.7456 21.2649 22.0522 21.934 21.959C23.2428 21.7848 24.4622 21.4322 25.7557 21.2964C26.1844 21.2562 25.6517 21.7567 26.1013 21.7125C28.5647 21.4862 30.8961 21.0012 33.3916 20.7148C45.6845 19.3889 57.768 18.3528 70.2114 17.5503C74.3143 17.2672 79.3028 17.992 83.5407 17.1015C84.0342 16.9926 83.7402 15.8188 83.8334 15.709C85.3096 14.0279 84.8196 16.5219 85.7833 16.7683C89.6091 17.7325 93.8643 17.6134 97.5462 16.8049C99.1114 16.4566 97.5408 13.8374 99.1178 15.2448C99.2272 15.3413 98.8317 16.8431 99.259 16.9725C100.233 17.2592 102.084 16.8663 102.839 16.9339C104.293 17.0762 104.534 17.0486 105.909 16.9763C107.79 16.8862 110.03 17.549 112.049 17.0649C112.478 16.9521 111.909 15.3181 112.596 14.9828C113.284 14.6465 115.103 14.6509 115.716 15.0137C116.329 15.3764 116.069 16.7483 116.178 17.0514C117.07 19.6315 119.17 15.881 119.445 15.7475C124.138 13.9376 128.197 15.5559 132.567 15.526C132.578 15.5017 132.586 15.4768 132.598 15.4528C133.264 14.0194 134.178 14.4514 134.979 15.3584C137.979 15.0186 141.076 14.3194 143.881 14.2567C144.242 14.2493 144.599 14.2564 144.951 14.2644C147.295 13.5773 149.646 13.42 152.017 13.8831C152.044 13.8994 152.041 14.3258 152.042 14.8249C153.048 14.8754 154.067 14.8779 155.124 14.7787C155.533 14.7415 155.055 12.2703 155.553 12.2132C156.375 12.1233 157.197 12.0495 158.018 11.9898C158.981 11.1383 159.825 11.0233 160.568 11.8607C163.375 11.7919 166.174 11.9755 168.976 12.5599C171.493 10.7846 173.239 12.9465 176.102 13.2051C177.648 13.3492 180.715 12.4492 182.389 11.7952C183.711 11.269 184.51 12.4495 185.729 11.6084C185.892 11.4915 185.727 9.18497 185.776 9.08722C187.137 6.22605 186.482 11.9545 186.763 12.9586C186.777 13.0102 186.791 13.0617 186.806 13.1127C187.554 13.4807 188.27 13.9748 188.909 14.6593C189.595 15.3931 189.555 16.5269 189.616 17.2248C189.782 17.1142 189.963 16.9645 190.153 16.7664C190.555 16.3549 191.724 8.02519 192.456 7.49246C193.409 6.82478 193.051 9.82536 194.048 9.05448C194.133 8.99121 194.115 7.15085 194.729 7.19777C197.586 7.40041 200.701 8.3401 203.669 8.02597C204.075 7.98961 203.555 5.03654 204.141 4.93274C206.89 4.44775 209.903 4.41532 212.581 5.7205C213.241 6.0515 212.827 8.18197 212.97 8.8041C213.848 12.5731 215.095 7.01295 215.301 6.89346C220.204 4.04093 223.958 8.97243 228.956 6.42928C229.23 6.27372 231.322 0.185163 232.255 5.34107C232.319 5.68306 233.244 10.9755 234.061 7.32489C234.112 7.09461 233.536 4.37381 234.541 4.62843C235.546 4.88389 237.162 3.01281 238.544 6.0017C238.981 6.94184 240.017 12.2527 241.321 7.9836ZM266.131 53.4537C266.03 53.4575 265.929 53.4584 265.828 53.4614C265.877 53.4427 265.93 53.4315 265.995 53.4383C266.04 53.443 266.086 53.4486 266.131 53.4537ZM244.924 48.0896C245.436 46.3015 246.085 44.5046 246.707 44.8924C248.258 45.8777 247.173 47.3417 247.038 49.251C246.315 48.8852 245.611 48.4966 244.924 48.0896ZM264.658 38.3573C265.685 33.1516 261.706 32.6008 262.579 38.0684C262.626 38.3507 264.589 38.6161 264.658 38.3573ZM232.603 33.4286C232.856 34.3266 233.176 35.2055 233.557 36.0634C233.571 35.3093 233.685 34.5451 233.464 34.2048C233.09 33.6411 232.812 33.4132 232.603 33.4286ZM16.4751 32.0553C15.97 31.7219 14.5192 32.1925 15.1457 32.5946C15.65 32.935 17.1018 32.4919 16.4751 32.0553ZM35.8536 31.4313C35.9415 31.7964 36.1613 32.1119 36.6609 32.325C36.6677 32.1138 36.6823 31.902 36.6911 31.6894C36.4126 31.6064 36.1337 31.5199 35.8536 31.4313ZM29.3781 30.1177C29.3376 30.6744 29.3202 31.2746 29.3706 31.3042C30.1484 31.7413 30.6051 31.0376 30.6823 30.2988C30.6249 30.3123 30.5478 30.3203 30.4401 30.3026C30.0875 30.2439 29.7337 30.1809 29.3781 30.1177ZM3.33487 25.7148C1.70687 26.2691 0.885966 27.2138 0.504519 27.4964C0.178293 27.8377 0.00155861 27.3036 1.58167 26.2637C1.87983 26.0951 1.57034 26.2898 1.33445 26.5083C1.09669 26.7263 0.929468 26.9527 1.24364 26.699C2.36053 25.8401 3.43177 25.381 5.01239 25.3854C4.86211 25.3891 4.65123 25.4009 4.42967 25.4336C3.9371 25.4969 3.42895 25.6801 3.33487 25.7148ZM11.2886 25.7398C10.8364 25.8411 12.5432 25.9909 12.1791 25.7976C12.1474 25.7889 11.3088 25.7353 11.2886 25.7398ZM253.034 4.49361C257.139 3.24591 261.585 2.66712 266.131 2.97396C265.965 3.02663 265.798 3.08299 265.632 3.14538C264.334 3.63308 265.28 9.71797 264.413 11.464C263.547 13.2082 261.881 12.2273 261.053 11.2078C260.225 10.1877 260.631 6.37011 259.837 5.79947C257.595 4.17696 255.282 5.77221 253.074 4.52828C253.059 4.51971 253.048 4.50661 253.034 4.49361ZM245.779 7.57528C245.774 8.19949 245.844 8.79134 245.691 9.15464C244.867 11.0715 244.519 10.0093 244.351 8.42081C244.818 8.12968 245.293 7.84714 245.779 7.57528ZM250.501 3.07796C250.759 2.5172 251.855 -2.28137 252.734 1.3426C252.867 1.89225 252.63 4.11289 253.034 4.49361C250.462 5.2753 248.023 6.31852 245.779 7.57528C245.783 6.991 245.854 6.37879 246.233 5.89962C247.434 4.3708 249.025 6.23613 250.501 3.07796Z" fill="#FF5A5F"/>
</svg>
